<svg width="377" height="77" viewBox="0 0 377 77" fill="none" xmlns="http://www.w3.org/2000/svg">
<path d="M15.88 19.424L25 0.768034H28.072L37.192 19.488L46.984 0.768034H51.4L39.144 24H35.08L26.504 6.30403L17.832 24H13.768L1.47998 0.768034H6.11998L15.88 19.424Z" fill="#181818"/>
<path d="M82.211 24H55.395V0.768034H82.083V4.12803H59.843V10.496H74.979V13.792H59.843V20.64H82.211V24Z" fill="#181818"/>
<path d="M87.645 0.768034H107.709C109.394 0.768034 110.834 0.928034 112.029 1.24803C113.224 1.5467 114.194 2.03737 114.941 2.72003C116.029 3.70137 116.573 5.04537 116.573 6.75203C116.573 7.90403 116.253 8.91737 115.613 9.79203C114.973 10.6454 114.109 11.2747 113.021 11.68C113.704 11.8507 114.333 12.1067 114.909 12.448C115.506 12.768 116.018 13.1734 116.445 13.664C116.872 14.1547 117.202 14.72 117.437 15.36C117.693 15.9787 117.821 16.672 117.821 17.44C117.821 18.4214 117.64 19.3067 117.277 20.096C116.914 20.8854 116.392 21.5574 115.709 22.112C114.898 22.752 113.896 23.232 112.701 23.552C111.528 23.8507 110.077 24 108.349 24H87.645V0.768034ZM108.221 20.736C109.352 20.736 110.216 20.6614 110.813 20.512C111.432 20.3627 111.922 20.1174 112.285 19.776C112.626 19.4774 112.872 19.104 113.021 18.656C113.17 18.1867 113.245 17.6747 113.245 17.12C113.245 16.5654 113.17 16.0747 113.021 15.648C112.872 15.2 112.626 14.8267 112.285 14.528C111.922 14.1867 111.432 13.9414 110.813 13.792C110.216 13.6427 109.352 13.568 108.221 13.568H92.093V20.736H108.221ZM107.325 10.496C108.285 10.496 109.064 10.4534 109.661 10.368C110.28 10.2614 110.77 10.0374 111.133 9.69603C111.432 9.44003 111.666 9.12003 111.837 8.73603C112.008 8.3307 112.093 7.8507 112.093 7.29603C112.093 6.74137 112.008 6.27203 111.837 5.88803C111.666 5.4827 111.432 5.15203 111.133 4.89603C110.77 4.5547 110.28 4.3307 109.661 4.22403C109.064 4.11737 108.285 4.06403 107.325 4.06403H92.093V10.496H107.325Z" fill="#181818"/>
<path d="M122.618 24V20.672H139.674C140.784 20.672 141.776 20.6507 142.65 20.608C143.546 20.544 144.293 20.416 144.89 20.224C145.488 20.0107 145.946 19.7014 146.266 19.296C146.586 18.8907 146.746 18.3467 146.746 17.664C146.746 17.088 146.629 16.6294 146.394 16.288C146.16 15.9254 145.818 15.6374 145.37 15.424C144.922 15.2107 144.368 15.0507 143.706 14.944C143.045 14.816 142.288 14.7094 141.434 14.624L130.138 13.472C128.794 13.344 127.578 13.1414 126.49 12.864C125.424 12.5654 124.506 12.1707 123.738 11.68C122.97 11.168 122.384 10.5387 121.978 9.79203C121.573 9.04537 121.37 8.1387 121.37 7.07203C121.37 5.8987 121.616 4.9067 122.106 4.09603C122.618 3.28537 123.333 2.6347 124.25 2.14403C125.168 1.65337 126.266 1.30137 127.546 1.08803C128.826 0.874701 130.245 0.768034 131.802 0.768034H149.722V4.09603H132.154C130.938 4.09603 129.925 4.1387 129.114 4.22403C128.304 4.30937 127.653 4.46937 127.162 4.70403C126.672 4.91737 126.32 5.21603 126.106 5.60003C125.893 5.9627 125.786 6.42137 125.786 6.97603C125.786 7.55203 125.914 8.02137 126.17 8.38403C126.426 8.72537 126.789 9.0027 127.258 9.21603C127.728 9.42937 128.282 9.58937 128.922 9.69603C129.584 9.8027 130.309 9.8987 131.098 9.98403L142.49 11.136C143.92 11.2854 145.178 11.5094 146.266 11.808C147.354 12.0854 148.261 12.48 148.986 12.992C149.712 13.4827 150.256 14.1014 150.618 14.848C150.981 15.5947 151.162 16.5014 151.162 17.568C151.162 19.936 150.256 21.6 148.442 22.56C146.629 23.52 143.856 24 140.122 24H122.618Z" fill="#181818"/>
<path d="M157.146 0.768034H161.594V24H157.146V0.768034Z" fill="#181818"/>
<path d="M183.523 24H179.075V4.12803H166.595V0.768034H196.003V4.12803H183.523V24Z" fill="#181818"/>
<path d="M227.742 24H200.926V0.768034H227.614V4.12803H205.374V10.496H220.51V13.792H205.374V20.64H227.742V24Z" fill="#181818"/>
<path d="M242.643 12.384C242.643 10.5067 242.91 8.8427 243.443 7.39203C243.977 5.94137 244.755 4.72537 245.779 3.74403C246.441 3.10403 247.177 2.5707 247.987 2.14403C248.819 1.71737 249.779 1.37603 250.867 1.12003C251.955 0.8427 253.193 0.6507 254.579 0.544033C255.987 0.437366 257.598 0.384033 259.411 0.384033H261.459C263.273 0.384033 264.873 0.437366 266.259 0.544033C267.667 0.6507 268.915 0.8427 270.003 1.12003C271.091 1.37603 272.041 1.71737 272.851 2.14403C273.683 2.5707 274.43 3.10403 275.091 3.74403C276.115 4.72537 276.894 5.94137 277.427 7.39203C277.961 8.8427 278.227 10.5067 278.227 12.384C278.227 14.2614 277.961 15.9254 277.427 17.376C276.894 18.8267 276.115 20.0427 275.091 21.024C274.43 21.664 273.683 22.1974 272.851 22.624C272.041 23.0507 271.091 23.4027 270.003 23.68C268.915 23.936 267.667 24.1174 266.259 24.224C264.873 24.3307 263.273 24.384 261.459 24.384H259.411C257.598 24.384 255.987 24.3307 254.579 24.224C253.193 24.1174 251.955 23.936 250.867 23.68C249.779 23.4027 248.819 23.0507 247.987 22.624C247.177 22.1974 246.441 21.664 245.779 21.024C244.755 20.0427 243.977 18.8267 243.443 17.376C242.91 15.9254 242.643 14.2614 242.643 12.384ZM273.523 12.384C273.523 11.168 273.395 10.0267 273.139 8.96003C272.905 7.89337 272.425 6.9867 271.699 6.24003C271.251 5.79203 270.718 5.42937 270.099 5.15203C269.481 4.85337 268.745 4.62937 267.891 4.48003C267.038 4.30937 266.057 4.19203 264.947 4.12803C263.859 4.06403 262.622 4.03203 261.235 4.03203H259.635C258.249 4.03203 257.001 4.06403 255.891 4.12803C254.803 4.19203 253.833 4.30937 252.979 4.48003C252.126 4.62937 251.39 4.85337 250.771 5.15203C250.153 5.42937 249.619 5.79203 249.171 6.24003C248.446 6.9867 247.955 7.89337 247.699 8.96003C247.465 10.0267 247.347 11.168 247.347 12.384C247.347 13.6 247.465 14.7414 247.699 15.808C247.955 16.8747 248.446 17.7814 249.171 18.528C249.619 18.976 250.153 19.3494 250.771 19.648C251.39 19.9254 252.126 20.1494 252.979 20.32C253.833 20.4694 254.803 20.576 255.891 20.64C257.001 20.704 258.249 20.736 259.635 20.736H261.235C262.622 20.736 263.859 20.704 264.947 20.64C266.057 20.576 267.038 20.4694 267.891 20.32C268.745 20.1494 269.481 19.9254 270.099 19.648C270.718 19.3494 271.251 18.976 271.699 18.528C272.425 17.7814 272.905 16.8747 273.139 15.808C273.395 14.7414 273.523 13.6 273.523 12.384Z" fill="#181818"/>
<path d="M283.864 0.768034H310.04V4.12803H288.312V10.496H302.936V13.792H288.312V24H283.864V0.768034Z" fill="#181818"/>
<path d="M29.224 69.52H9.60798L6.63198 74H1.63998L17.416 50.768H21.384L37.256 74H32.232L29.224 69.52ZM11.88 66.128H26.952L19.4 54.896L11.88 66.128Z" fill="#181818"/>
<path d="M79.4052 70.608V74H67.4372C65.6666 74 64.0986 73.9574 62.7332 73.872C61.3679 73.7867 60.1519 73.6267 59.0852 73.392C58.0186 73.1574 57.0799 72.848 56.2692 72.464C55.4586 72.08 54.7226 71.5787 54.0612 70.96C53.0159 70 52.2266 68.816 51.6932 67.408C51.1599 66 50.8932 64.3254 50.8932 62.384C50.8932 60.4427 51.1599 58.768 51.6932 57.36C52.2266 55.952 53.0159 54.768 54.0612 53.808C54.7226 53.2107 55.4586 52.72 56.2692 52.336C57.0799 51.9307 58.0186 51.6107 59.0852 51.376C60.1519 51.1414 61.3679 50.9814 62.7332 50.896C64.0986 50.8107 65.6666 50.768 67.4372 50.768H79.4052V54.16H67.7892C66.4026 54.16 65.1546 54.192 64.0452 54.256C62.9572 54.2987 61.9972 54.3947 61.1652 54.544C60.3332 54.6934 59.6079 54.9067 58.9892 55.184C58.3706 55.4614 57.8479 55.824 57.4212 56.272C56.7172 57.0187 56.2372 57.9254 55.9812 58.992C55.7252 60.0587 55.5972 61.1894 55.5972 62.384C55.5972 63.5787 55.7252 64.7094 55.9812 65.776C56.2372 66.8427 56.7172 67.7494 57.4212 68.496C57.8479 68.944 58.3706 69.3067 58.9892 69.584C59.6079 69.8614 60.3332 70.0747 61.1652 70.224C61.9972 70.3734 62.9572 70.48 64.0452 70.544C65.1546 70.5867 66.4026 70.608 67.7892 70.608H79.4052Z" fill="#181818"/>
<path d="M89.4992 70.64H111.035V74H85.0512V50.768H89.4992V70.64Z" fill="#181818"/>
<path d="M145.361 65.168C145.361 66.64 145.18 67.8454 144.817 68.784C144.476 69.7227 143.943 70.544 143.217 71.248C142.065 72.3787 140.433 73.1894 138.321 73.68C136.209 74.1494 133.585 74.384 130.449 74.384H129.201C126.065 74.384 123.441 74.1494 121.329 73.68C119.217 73.1894 117.585 72.3787 116.433 71.248C115.708 70.544 115.164 69.7227 114.801 68.784C114.46 67.8454 114.289 66.64 114.289 65.168V50.768H118.705V64.336C118.705 65.424 118.801 66.32 118.993 67.024C119.185 67.728 119.559 68.3254 120.113 68.816C120.839 69.4987 121.937 70.0107 123.409 70.352C124.903 70.672 126.919 70.832 129.457 70.832H130.225C132.764 70.832 134.769 70.672 136.241 70.352C137.713 70.0107 138.823 69.4987 139.569 68.816C140.124 68.3254 140.497 67.728 140.689 67.024C140.881 66.32 140.977 65.424 140.977 64.336V50.768H145.361V65.168Z" fill="#181818"/>
<path d="M151.895 50.768H171.959C173.644 50.768 175.084 50.928 176.279 51.248C177.474 51.5467 178.444 52.0374 179.191 52.72C180.279 53.7014 180.823 55.0454 180.823 56.752C180.823 57.904 180.503 58.9174 179.863 59.792C179.223 60.6454 178.359 61.2747 177.271 61.68C177.954 61.8507 178.583 62.1067 179.159 62.448C179.756 62.768 180.268 63.1734 180.695 63.664C181.122 64.1547 181.452 64.72 181.687 65.36C181.943 65.9787 182.071 66.672 182.071 67.44C182.071 68.4214 181.89 69.3067 181.527 70.096C181.164 70.8854 180.642 71.5574 179.959 72.112C179.148 72.752 178.146 73.232 176.951 73.552C175.778 73.8507 174.327 74 172.599 74H151.895V50.768ZM172.471 70.736C173.602 70.736 174.466 70.6614 175.063 70.512C175.682 70.3627 176.172 70.1174 176.535 69.776C176.876 69.4774 177.122 69.104 177.271 68.656C177.42 68.1867 177.495 67.6747 177.495 67.12C177.495 66.5654 177.42 66.0747 177.271 65.648C177.122 65.2 176.876 64.8267 176.535 64.528C176.172 64.1867 175.682 63.9414 175.063 63.792C174.466 63.6427 173.602 63.568 172.471 63.568H156.343V70.736H172.471ZM171.575 60.496C172.535 60.496 173.314 60.4534 173.911 60.368C174.53 60.2614 175.02 60.0374 175.383 59.696C175.682 59.44 175.916 59.12 176.087 58.736C176.258 58.3307 176.343 57.8507 176.343 57.296C176.343 56.7414 176.258 56.272 176.087 55.888C175.916 55.4827 175.682 55.152 175.383 54.896C175.02 54.5547 174.53 54.3307 173.911 54.224C173.314 54.1174 172.535 54.064 171.575 54.064H156.343V60.496H171.575Z" fill="#181818"/>
<path d="M229.496 74H225.048V63.568H202.968V74H198.52V50.768H202.968V60.112H225.048V50.768H229.496V74Z" fill="#181818"/>
<path d="M235.143 62.384C235.143 60.5067 235.41 58.8427 235.943 57.392C236.477 55.9414 237.255 54.7254 238.279 53.744C238.941 53.104 239.677 52.5707 240.487 52.144C241.319 51.7174 242.279 51.376 243.367 51.12C244.455 50.8427 245.693 50.6507 247.079 50.544C248.487 50.4374 250.098 50.384 251.911 50.384H253.959C255.773 50.384 257.373 50.4374 258.759 50.544C260.167 50.6507 261.415 50.8427 262.503 51.12C263.591 51.376 264.541 51.7174 265.351 52.144C266.183 52.5707 266.93 53.104 267.591 53.744C268.615 54.7254 269.394 55.9414 269.927 57.392C270.461 58.8427 270.727 60.5067 270.727 62.384C270.727 64.2614 270.461 65.9254 269.927 67.376C269.394 68.8267 268.615 70.0427 267.591 71.024C266.93 71.664 266.183 72.1974 265.351 72.624C264.541 73.0507 263.591 73.4027 262.503 73.68C261.415 73.936 260.167 74.1174 258.759 74.224C257.373 74.3307 255.773 74.384 253.959 74.384H251.911C250.098 74.384 248.487 74.3307 247.079 74.224C245.693 74.1174 244.455 73.936 243.367 73.68C242.279 73.4027 241.319 73.0507 240.487 72.624C239.677 72.1974 238.941 71.664 238.279 71.024C237.255 70.0427 236.477 68.8267 235.943 67.376C235.41 65.9254 235.143 64.2614 235.143 62.384ZM266.023 62.384C266.023 61.168 265.895 60.0267 265.639 58.96C265.405 57.8934 264.925 56.9867 264.199 56.24C263.751 55.792 263.218 55.4294 262.599 55.152C261.981 54.8534 261.245 54.6294 260.391 54.48C259.538 54.3094 258.557 54.192 257.447 54.128C256.359 54.064 255.122 54.032 253.735 54.032H252.135C250.749 54.032 249.501 54.064 248.391 54.128C247.303 54.192 246.333 54.3094 245.479 54.48C244.626 54.6294 243.89 54.8534 243.271 55.152C242.653 55.4294 242.119 55.792 241.671 56.24C240.946 56.9867 240.455 57.8934 240.199 58.96C239.965 60.0267 239.847 61.168 239.847 62.384C239.847 63.6 239.965 64.7414 240.199 65.808C240.455 66.8747 240.946 67.7814 241.671 68.528C242.119 68.976 242.653 69.3494 243.271 69.648C243.89 69.9254 244.626 70.1494 245.479 70.32C246.333 70.4694 247.303 70.576 248.391 70.64C249.501 70.704 250.749 70.736 252.135 70.736H253.735C255.122 70.736 256.359 70.704 257.447 70.64C258.557 70.576 259.538 70.4694 260.391 70.32C261.245 70.1494 261.981 69.9254 262.599 69.648C263.218 69.3494 263.751 68.976 264.199 68.528C264.925 67.7814 265.405 66.8747 265.639 65.808C265.895 64.7414 266.023 63.6 266.023 62.384Z" fill="#181818"/>
<path d="M306.924 65.168C306.924 66.64 306.742 67.8454 306.38 68.784C306.038 69.7227 305.505 70.544 304.78 71.248C303.628 72.3787 301.996 73.1894 299.884 73.68C297.772 74.1494 295.148 74.384 292.012 74.384H290.764C287.628 74.384 285.004 74.1494 282.892 73.68C280.78 73.1894 279.148 72.3787 277.996 71.248C277.27 70.544 276.726 69.7227 276.364 68.784C276.022 67.8454 275.852 66.64 275.852 65.168V50.768H280.268V64.336C280.268 65.424 280.364 66.32 280.556 67.024C280.748 67.728 281.121 68.3254 281.676 68.816C282.401 69.4987 283.5 70.0107 284.972 70.352C286.465 70.672 288.481 70.832 291.02 70.832H291.788C294.326 70.832 296.332 70.672 297.804 70.352C299.276 70.0107 300.385 69.4987 301.132 68.816C301.686 68.3254 302.06 67.728 302.252 67.024C302.444 66.32 302.54 65.424 302.54 64.336V50.768H306.924V65.168Z" fill="#181818"/>
<path d="M313.649 74V70.672H330.705C331.815 70.672 332.807 70.6507 333.681 70.608C334.577 70.544 335.324 70.416 335.921 70.224C336.519 70.0107 336.977 69.7014 337.297 69.296C337.617 68.8907 337.777 68.3467 337.777 67.664C337.777 67.088 337.66 66.6294 337.425 66.288C337.191 65.9254 336.849 65.6374 336.401 65.424C335.953 65.2107 335.399 65.0507 334.737 64.944C334.076 64.816 333.319 64.7094 332.465 64.624L321.169 63.472C319.825 63.344 318.609 63.1414 317.521 62.864C316.455 62.5654 315.537 62.1707 314.769 61.68C314.001 61.168 313.415 60.5387 313.009 59.792C312.604 59.0454 312.401 58.1387 312.401 57.072C312.401 55.8987 312.647 54.9067 313.137 54.096C313.649 53.2854 314.364 52.6347 315.281 52.144C316.199 51.6534 317.297 51.3014 318.577 51.088C319.857 50.8747 321.276 50.768 322.833 50.768H340.753V54.096H323.185C321.969 54.096 320.956 54.1387 320.145 54.224C319.335 54.3094 318.684 54.4694 318.193 54.704C317.703 54.9174 317.351 55.216 317.137 55.6C316.924 55.9627 316.817 56.4214 316.817 56.976C316.817 57.552 316.945 58.0214 317.201 58.384C317.457 58.7254 317.82 59.0027 318.289 59.216C318.759 59.4294 319.313 59.5894 319.953 59.696C320.615 59.8027 321.34 59.8987 322.129 59.984L333.521 61.136C334.951 61.2854 336.209 61.5094 337.297 61.808C338.385 62.0854 339.292 62.48 340.017 62.992C340.743 63.4827 341.287 64.1014 341.649 64.848C342.012 65.5947 342.193 66.5014 342.193 67.568C342.193 69.936 341.287 71.6 339.473 72.56C337.66 73.52 334.887 74 331.153 74H313.649Z" fill="#181818"/>
<path d="M374.93 74H348.114V50.768H374.802V54.128H352.562V60.496H367.698V63.792H352.562V70.64H374.93V74Z" fill="#181818"/>
</svg>
