<svg width="333" height="75" viewBox="0 0 333 75" fill="none" xmlns="http://www.w3.org/2000/svg">
<path d="M40.576 24H36.224V7.32803L23.808 22.976H19.936L7.104 7.39203V24H2.88V0.768034H6.624L21.952 19.424L36.736 0.768034H40.576V24Z" fill="#181818"/>
<path d="M46.222 12.384C46.222 10.5067 46.4887 8.8427 47.022 7.39203C47.5553 5.94137 48.334 4.72537 49.358 3.74403C50.0193 3.10403 50.7553 2.5707 51.566 2.14403C52.398 1.71737 53.358 1.37603 54.446 1.12003C55.534 0.8427 56.7713 0.6507 58.158 0.544033C59.566 0.437366 61.1767 0.384033 62.99 0.384033H65.038C66.8513 0.384033 68.4513 0.437366 69.838 0.544033C71.246 0.6507 72.494 0.8427 73.582 1.12003C74.67 1.37603 75.6193 1.71737 76.43 2.14403C77.262 2.5707 78.0087 3.10403 78.67 3.74403C79.694 4.72537 80.4727 5.94137 81.006 7.39203C81.5393 8.8427 81.806 10.5067 81.806 12.384C81.806 14.2614 81.5393 15.9254 81.006 17.376C80.4727 18.8267 79.694 20.0427 78.67 21.024C78.0087 21.664 77.262 22.1974 76.43 22.624C75.6193 23.0507 74.67 23.4027 73.582 23.68C72.494 23.936 71.246 24.1174 69.838 24.224C68.4513 24.3307 66.8513 24.384 65.038 24.384H62.99C61.1767 24.384 59.566 24.3307 58.158 24.224C56.7713 24.1174 55.534 23.936 54.446 23.68C53.358 23.4027 52.398 23.0507 51.566 22.624C50.7553 22.1974 50.0193 21.664 49.358 21.024C48.334 20.0427 47.5553 18.8267 47.022 17.376C46.4887 15.9254 46.222 14.2614 46.222 12.384ZM77.102 12.384C77.102 11.168 76.974 10.0267 76.718 8.96003C76.4833 7.89337 76.0033 6.9867 75.278 6.24003C74.83 5.79203 74.2967 5.42937 73.678 5.15203C73.0593 4.85337 72.3233 4.62937 71.47 4.48003C70.6167 4.30937 69.6353 4.19203 68.526 4.12803C67.438 4.06403 66.2007 4.03203 64.814 4.03203H63.214C61.8273 4.03203 60.5793 4.06403 59.47 4.12803C58.382 4.19203 57.4113 4.30937 56.558 4.48003C55.7047 4.62937 54.9687 4.85337 54.35 5.15203C53.7313 5.42937 53.198 5.79203 52.75 6.24003C52.0247 6.9867 51.534 7.89337 51.278 8.96003C51.0433 10.0267 50.926 11.168 50.926 12.384C50.926 13.6 51.0433 14.7414 51.278 15.808C51.534 16.8747 52.0247 17.7814 52.75 18.528C53.198 18.976 53.7313 19.3494 54.35 19.648C54.9687 19.9254 55.7047 20.1494 56.558 20.32C57.4113 20.4694 58.382 20.576 59.47 20.64C60.5793 20.704 61.8273 20.736 63.214 20.736H64.814C66.2007 20.736 67.438 20.704 68.526 20.64C69.6353 20.576 70.6167 20.4694 71.47 20.32C72.3233 20.1494 73.0593 19.9254 73.678 19.648C74.2967 19.3494 74.83 18.976 75.278 18.528C76.0033 17.7814 76.4833 16.8747 76.718 15.808C76.974 14.7414 77.102 13.6 77.102 12.384Z" fill="#181818"/>
<path d="M87.4425 0.768034H107.507C109.192 0.768034 110.632 0.928034 111.826 1.24803C113.021 1.5467 113.992 2.03737 114.739 2.72003C115.826 3.70137 116.37 5.04537 116.37 6.75203C116.37 7.90403 116.05 8.91737 115.41 9.79203C114.771 10.6454 113.907 11.2747 112.819 11.68C113.501 11.8507 114.131 12.1067 114.707 12.448C115.304 12.768 115.816 13.1734 116.243 13.664C116.669 14.1547 117 14.72 117.234 15.36C117.491 15.9787 117.618 16.672 117.618 17.44C117.618 18.4214 117.437 19.3067 117.075 20.096C116.712 20.8854 116.189 21.5574 115.507 22.112C114.696 22.752 113.693 23.232 112.499 23.552C111.325 23.8507 109.874 24 108.146 24H87.4425V0.768034ZM108.019 20.736C109.149 20.736 110.013 20.6614 110.611 20.512C111.229 20.3627 111.72 20.1174 112.083 19.776C112.424 19.4774 112.669 19.104 112.819 18.656C112.968 18.1867 113.043 17.6747 113.043 17.12C113.043 16.5654 112.968 16.0747 112.819 15.648C112.669 15.2 112.424 14.8267 112.083 14.528C111.72 14.1867 111.229 13.9414 110.611 13.792C110.013 13.6427 109.149 13.568 108.019 13.568H91.8905V20.736H108.019ZM107.122 10.496C108.082 10.496 108.861 10.4534 109.459 10.368C110.077 10.2614 110.568 10.0374 110.931 9.69603C111.229 9.44003 111.464 9.12003 111.634 8.73603C111.805 8.3307 111.891 7.8507 111.891 7.29603C111.891 6.74137 111.805 6.27203 111.634 5.88803C111.464 5.4827 111.229 5.15203 110.931 4.89603C110.568 4.5547 110.077 4.3307 109.459 4.22403C108.861 4.11737 108.082 4.06403 107.122 4.06403H91.8905V10.496H107.122Z" fill="#181818"/>
<path d="M123.257 0.768034H127.704V24H123.257V0.768034Z" fill="#181818"/>
<path d="M139.266 20.64H160.801V24H134.818V0.768034H139.266V20.64Z" fill="#181818"/>
<path d="M192.665 24H165.849V0.768034H192.537V4.12803H170.297V10.496H185.433V13.792H170.297V20.64H192.665V24Z" fill="#181818"/>
<path d="M27.584 69.52H7.968L4.992 74H0L15.776 50.768H19.744L35.616 74H30.592L27.584 69.52ZM10.24 66.128H25.312L17.76 54.896L10.24 66.128Z" fill="#181818"/>
<path d="M58.9863 63.6C60.2023 63.6 61.1942 63.5147 61.9622 63.344C62.7303 63.152 63.3383 62.8427 63.7863 62.416C64.5116 61.6907 64.8743 60.5067 64.8743 58.864C64.8743 57.2214 64.5116 56.0374 63.7863 55.312C63.3383 54.8854 62.7303 54.5867 61.9622 54.416C61.1942 54.224 60.2023 54.128 58.9863 54.128H44.2342V63.6H58.9863ZM44.2342 66.96V74H39.7863V50.768H59.4023C61.2369 50.768 62.8156 50.96 64.1383 51.344C65.4823 51.7067 66.5809 52.3147 67.4342 53.168C68.0742 53.808 68.5649 54.5974 68.9062 55.536C69.2689 56.4747 69.4502 57.584 69.4502 58.864C69.4502 60.144 69.2689 61.2534 68.9062 62.192C68.5649 63.1307 68.0742 63.92 67.4342 64.56C66.5809 65.4134 65.4823 66.032 64.1383 66.416C62.8156 66.7787 61.2369 66.96 59.4023 66.96H44.2342Z" fill="#181818"/>
<path d="M94.0488 63.6C95.2648 63.6 96.2568 63.5147 97.0247 63.344C97.7927 63.152 98.4007 62.8427 98.8487 62.416C99.5741 61.6907 99.9368 60.5067 99.9368 58.864C99.9368 57.2214 99.5741 56.0374 98.8487 55.312C98.4007 54.8854 97.7927 54.5867 97.0247 54.416C96.2568 54.224 95.2648 54.128 94.0488 54.128H79.2968V63.6H94.0488ZM79.2968 66.96V74H74.8487V50.768H94.4648C96.2994 50.768 97.8781 50.96 99.2008 51.344C100.545 51.7067 101.643 52.3147 102.497 53.168C103.137 53.808 103.627 54.5974 103.969 55.536C104.331 56.4747 104.513 57.584 104.513 58.864C104.513 60.144 104.331 61.2534 103.969 62.192C103.627 63.1307 103.137 63.92 102.497 64.56C101.643 65.4134 100.545 66.032 99.2008 66.416C97.8781 66.7787 96.2994 66.96 94.4648 66.96H79.2968Z" fill="#181818"/>
<path d="M114.359 70.64H135.895V74H109.911V50.768H114.359V70.64Z" fill="#181818"/>
<path d="M141.007 50.768H145.454V74H141.007V50.768Z" fill="#181818"/>
<path d="M179.671 70.608V74H167.704C165.933 74 164.365 73.9574 162.999 73.872C161.634 73.7867 160.418 73.6267 159.352 73.392C158.285 73.1574 157.346 72.848 156.536 72.464C155.725 72.08 154.989 71.5787 154.327 70.96C153.282 70 152.493 68.816 151.96 67.408C151.426 66 151.16 64.3254 151.16 62.384C151.16 60.4427 151.426 58.768 151.96 57.36C152.493 55.952 153.282 54.768 154.327 53.808C154.989 53.2107 155.725 52.72 156.536 52.336C157.346 51.9307 158.285 51.6107 159.352 51.376C160.418 51.1414 161.634 50.9814 162.999 50.896C164.365 50.8107 165.933 50.768 167.704 50.768H179.671V54.16H168.055C166.669 54.16 165.421 54.192 164.312 54.256C163.224 54.2987 162.264 54.3947 161.432 54.544C160.6 54.6934 159.874 54.9067 159.255 55.184C158.637 55.4614 158.114 55.824 157.688 56.272C156.984 57.0187 156.503 57.9254 156.247 58.992C155.992 60.0587 155.863 61.1894 155.863 62.384C155.863 63.5787 155.992 64.7094 156.247 65.776C156.503 66.8427 156.984 67.7494 157.688 68.496C158.114 68.944 158.637 69.3067 159.255 69.584C159.874 69.8614 160.6 70.0747 161.432 70.224C162.264 70.3734 163.224 70.48 164.312 70.544C165.421 70.5867 166.669 70.608 168.055 70.608H179.671Z" fill="#181818"/>
<path d="M210.334 69.52H190.718L187.742 74H182.75L198.526 50.768H202.494L218.366 74H213.342L210.334 69.52ZM192.99 66.128H208.062L200.51 54.896L192.99 66.128Z" fill="#181818"/>
<path d="M231.571 74H227.123V54.128H214.643V50.768H244.051V54.128H231.571V74Z" fill="#181818"/>
<path d="M249.038 50.768H253.486V74H249.038V50.768Z" fill="#181818"/>
<path d="M259.191 62.384C259.191 60.5067 259.457 58.8427 259.991 57.392C260.524 55.9414 261.303 54.7254 262.327 53.744C262.988 53.104 263.724 52.5707 264.535 52.144C265.367 51.7174 266.327 51.376 267.415 51.12C268.503 50.8427 269.74 50.6507 271.127 50.544C272.535 50.4374 274.145 50.384 275.959 50.384H278.007C279.82 50.384 281.42 50.4374 282.807 50.544C284.215 50.6507 285.463 50.8427 286.551 51.12C287.639 51.376 288.588 51.7174 289.399 52.144C290.231 52.5707 290.977 53.104 291.639 53.744C292.663 54.7254 293.441 55.9414 293.975 57.392C294.508 58.8427 294.775 60.5067 294.775 62.384C294.775 64.2614 294.508 65.9254 293.975 67.376C293.441 68.8267 292.663 70.0427 291.639 71.024C290.977 71.664 290.231 72.1974 289.399 72.624C288.588 73.0507 287.639 73.4027 286.551 73.68C285.463 73.936 284.215 74.1174 282.807 74.224C281.42 74.3307 279.82 74.384 278.007 74.384H275.959C274.145 74.384 272.535 74.3307 271.127 74.224C269.74 74.1174 268.503 73.936 267.415 73.68C266.327 73.4027 265.367 73.0507 264.535 72.624C263.724 72.1974 262.988 71.664 262.327 71.024C261.303 70.0427 260.524 68.8267 259.991 67.376C259.457 65.9254 259.191 64.2614 259.191 62.384ZM290.071 62.384C290.071 61.168 289.943 60.0267 289.687 58.96C289.452 57.8934 288.972 56.9867 288.247 56.24C287.799 55.792 287.265 55.4294 286.647 55.152C286.028 54.8534 285.292 54.6294 284.439 54.48C283.585 54.3094 282.604 54.192 281.495 54.128C280.407 54.064 279.169 54.032 277.783 54.032H276.183C274.796 54.032 273.548 54.064 272.439 54.128C271.351 54.192 270.38 54.3094 269.527 54.48C268.673 54.6294 267.937 54.8534 267.319 55.152C266.7 55.4294 266.167 55.792 265.719 56.24C264.993 56.9867 264.503 57.8934 264.247 58.96C264.012 60.0267 263.895 61.168 263.895 62.384C263.895 63.6 264.012 64.7414 264.247 65.808C264.503 66.8747 264.993 67.7814 265.719 68.528C266.167 68.976 266.7 69.3494 267.319 69.648C267.937 69.9254 268.673 70.1494 269.527 70.32C270.38 70.4694 271.351 70.576 272.439 70.64C273.548 70.704 274.796 70.736 276.183 70.736H277.783C279.169 70.736 280.407 70.704 281.495 70.64C282.604 70.576 283.585 70.4694 284.439 70.32C285.292 70.1494 286.028 69.9254 286.647 69.648C287.265 69.3494 287.799 68.976 288.247 68.528C288.972 67.7814 289.452 66.8747 289.687 65.808C289.943 64.7414 290.071 63.6 290.071 62.384Z" fill="#181818"/>
<path d="M304.411 50.768L327.931 69.168V50.768H332.155V74H328.155L304.635 55.6V74H300.411V50.768H304.411Z" fill="#181818"/>
</svg>
