<?xml version="1.0" encoding="utf-8"?>
<!-- Generator: Adobe Illustrator 22.1.0, SVG Export Plug-In . SVG Version: 6.00 Build 0)  -->
<svg version="1.1" xmlns="http://www.w3.org/2000/svg" xmlns:xlink="http://www.w3.org/1999/xlink" x="0px" y="0px" width="700px"
	 height="125px" viewBox="0 0 700 125" style="enable-background:new 0 0 700 125;" xml:space="preserve">
<style type="text/css">
	.st0{display:none;}
	.st1{display:inline;fill:none;stroke:#E0E0E0;}
	.st2{fill:none;stroke:#FFFFFF;stroke-miterlimit:10;}
</style>
<g id="Слой_1" class="st0">
	<path class="st1" d="M1.5,5.7v68.5c0,3.5,0.2,6.6,0.6,9.5c0.4,2.8,1.1,5.5,2,7.9C5,94,6.2,96.3,7.7,98.4c1.5,2,3.4,4,5.8,5.9h0
		c5.4,4.5,12.8,7.9,22.3,10.4c9.6,2.3,22,3.5,37.1,3.5h7.5c7.8,0,14.7-0.4,20.9-1.1l0,0c6.2-0.6,11.8-1.5,16.6-2.6
		c4.9-1.2,9.1-2.7,12.7-4.4c3.6-1.7,6.7-3.7,9.3-5.8c4.6-3.8,7.7-7.9,9.4-12.6c1.7-4.8,2.6-10.6,2.6-17.5V5.7h-32v63.9
		c0,3.3-0.4,6.1-1.1,8.5l0,0c-0.7,2.2-2.1,4.2-4,5.9c-1.2,1.1-2.7,2-4.4,2.9l0,0l0,0c-1.8,0.7-4.1,1.4-6.9,2l0,0l0,0
		c-2.7,0.5-6.1,0.9-10.1,1.2c0,0,0,0,0,0l0-0.5c-3.9,0.3-8.6,0.5-14,0.5h-5.2c-5.4,0-10.2-0.2-14.2-0.5L1.5,5.7z M1.5,5.7h32.1H1.5z
		 M486.2,5.7v68.5c0,3.5,0.2,6.6,0.6,9.5c0.4,2.8,1.1,5.5,2,7.9c0.9,2.4,2.1,4.7,3.6,6.8c1.5,2,3.4,4,5.8,5.9h0
		c5.4,4.5,12.8,7.9,22.3,10.4c9.6,2.3,22,3.5,37.1,3.5h7.5c7.8,0,14.7-0.4,20.9-1.1l0,0c6.2-0.6,11.8-1.5,16.6-2.6
		c4.9-1.2,9.1-2.7,12.7-4.4c3.6-1.7,6.7-3.7,9.3-5.8c4.6-3.8,7.7-7.9,9.4-12.6c1.7-4.8,2.6-10.6,2.6-17.5V5.7h-32v63.9
		c0,3.3-0.4,6.1-1.1,8.5l0,0c-0.7,2.2-2.1,4.2-4,5.9c-1.2,1.1-2.7,2-4.4,2.9l0,0l0,0c-1.8,0.7-4.1,1.4-6.9,2l0,0l0,0
		c-2.7,0.5-6,0.9-10.1,1.2c0,0,0,0,0,0l0-0.5c-3.9,0.3-8.6,0.5-14,0.5h-5.2c-5.4,0-10.2-0.2-14.2-0.5L486.2,5.7z M486.2,5.7h32.1
		H486.2z M258.2,41.3l0.3,0.3l0.3-0.3l41.6-35.6h39.9L279,58.6l-0.4,0.4l0.4,0.4l66.4,57.2h-42.4l-47.1-40.7l-0.3-0.3l-0.3,0.3
		l-47,40.7h-40.4l67.4-57.8l0.4-0.4l-0.4-0.4L175,5.7h42.2L258.2,41.3z M466.3,1.7l-77.4,121h-32.1l77.4-121H466.3z M698.4,116.5
		h-32.1V5.7h32.1V116.5z"/>
</g>
<g id="Слой_2">
	<g>
		<path class="st2" d="M152.6,74.2c0,7-0.9,12.9-2.6,17.6c-1.7,4.8-4.9,9.1-9.5,12.9c-2.7,2.2-5.8,4.1-9.4,5.9
			c-3.6,1.7-7.8,3.2-12.7,4.4c-4.9,1.2-10.4,2.1-16.6,2.8c-6.2,0.7-13.2,1-21,1h-7.5c-15.2,0-27.6-1.2-37.2-3.6
			c-9.6-2.4-17.1-5.9-22.6-10.4c-2.4-1.9-4.3-4-5.9-6.1c-1.5-2.1-2.8-4.4-3.7-6.9c-0.9-2.5-1.6-5.1-2-8c-0.4-2.9-0.6-6.1-0.6-9.5
			v-69h33.1v64.4c0,3.3,0.4,6,1.1,8.2c0.7,2.2,2,4.1,3.9,5.8c1.1,1,2.6,1.9,4.3,2.7c1.7,0.8,4,1.4,6.7,2c2.7,0.6,6.1,1,10,1.3
			c4,0.3,8.6,0.5,14.1,0.5h5.2c5.4,0,10.1-0.2,14.1-0.5c4-0.3,7.3-0.7,10-1.3c2.7-0.6,5-1.2,6.7-2c1.7-0.8,3.2-1.7,4.3-2.7
			c1.8-1.6,3.1-3.6,3.8-5.8c0.7-2.2,1.1-5,1.1-8.2V5.2h33V74.2z"/>
		<path class="st2" d="M258.7,40.9l41.7-35.7h41.4l-62.4,53.7L347,117h-43.9l-47.3-40.8L208.7,117h-41.9l68.4-58.7L173.9,5.2h43.7
			L258.7,40.9z"/>
		<path class="st2" d="M389.5,123.2h-33.3l78.1-122h33.3L389.5,123.2z"/>
		<path class="st2" d="M637.4,74.2c0,7-0.9,12.9-2.6,17.6c-1.7,4.8-4.9,9.1-9.5,12.9c-2.7,2.2-5.8,4.1-9.4,5.9
			c-3.6,1.7-7.8,3.2-12.7,4.4c-4.9,1.2-10.4,2.1-16.6,2.8c-6.2,0.7-13.2,1-21,1H558c-15.2,0-27.6-1.2-37.2-3.6
			c-9.6-2.4-17.1-5.9-22.6-10.4c-2.4-1.9-4.3-4-5.9-6.1c-1.5-2.1-2.8-4.4-3.7-6.9s-1.6-5.1-2-8c-0.4-2.9-0.6-6.1-0.6-9.5v-69h33.1
			v64.4c0,3.3,0.4,6,1.1,8.2c0.7,2.2,2,4.1,3.9,5.8c1.1,1,2.6,1.9,4.3,2.7c1.7,0.8,4,1.4,6.7,2c2.7,0.6,6.1,1,10,1.3
			c4,0.3,8.6,0.5,14.1,0.5h5.2c5.4,0,10.1-0.2,14.1-0.5c4-0.3,7.3-0.7,10-1.3c2.7-0.6,5-1.2,6.7-2c1.7-0.8,3.2-1.7,4.3-2.7
			c1.8-1.6,3.1-3.6,3.8-5.8c0.7-2.2,1.1-5,1.1-8.2V5.2h33V74.2z"/>
		<path class="st2" d="M699.2,117h-33.1V5.2h33.1V117z"/>
	</g>
</g>
</svg>
