<svg width="569" height="75" viewBox="0 0 569 75" fill="none" xmlns="http://www.w3.org/2000/svg">
<path d="M14.88 19.424L24 0.768034H27.072L36.192 19.488L45.984 0.768034H50.4L38.144 24H34.08L25.504 6.30403L16.832 24H12.768L0.47998 0.768034H5.11998L14.88 19.424Z" fill="#181818"/>
<path d="M81.211 24H54.395V0.768034H81.083V4.12803H58.843V10.496H73.979V13.792H58.843V20.64H81.211V24Z" fill="#181818"/>
<path d="M86.645 0.768034H106.709C108.394 0.768034 109.834 0.928034 111.029 1.24803C112.224 1.5467 113.194 2.03737 113.941 2.72003C115.029 3.70137 115.573 5.04537 115.573 6.75203C115.573 7.90403 115.253 8.91737 114.613 9.79203C113.973 10.6454 113.109 11.2747 112.021 11.68C112.704 11.8507 113.333 12.1067 113.909 12.448C114.506 12.768 115.018 13.1734 115.445 13.664C115.872 14.1547 116.202 14.72 116.437 15.36C116.693 15.9787 116.821 16.672 116.821 17.44C116.821 18.4214 116.64 19.3067 116.277 20.096C115.914 20.8854 115.392 21.5574 114.709 22.112C113.898 22.752 112.896 23.232 111.701 23.552C110.528 23.8507 109.077 24 107.349 24H86.645V0.768034ZM107.221 20.736C108.352 20.736 109.216 20.6614 109.813 20.512C110.432 20.3627 110.922 20.1174 111.285 19.776C111.626 19.4774 111.872 19.104 112.021 18.656C112.17 18.1867 112.245 17.6747 112.245 17.12C112.245 16.5654 112.17 16.0747 112.021 15.648C111.872 15.2 111.626 14.8267 111.285 14.528C110.922 14.1867 110.432 13.9414 109.813 13.792C109.216 13.6427 108.352 13.568 107.221 13.568H91.093V20.736H107.221ZM106.325 10.496C107.285 10.496 108.064 10.4534 108.661 10.368C109.28 10.2614 109.77 10.0374 110.133 9.69603C110.432 9.44003 110.666 9.12003 110.837 8.73603C111.008 8.3307 111.093 7.8507 111.093 7.29603C111.093 6.74137 111.008 6.27203 110.837 5.88803C110.666 5.4827 110.432 5.15203 110.133 4.89603C109.77 4.5547 109.28 4.3307 108.661 4.22403C108.064 4.11737 107.285 4.06403 106.325 4.06403H91.093V10.496H106.325Z" fill="#181818"/>
<path d="M121.618 24V20.672H138.674C139.784 20.672 140.776 20.6507 141.65 20.608C142.546 20.544 143.293 20.416 143.89 20.224C144.488 20.0107 144.946 19.7014 145.266 19.296C145.586 18.8907 145.746 18.3467 145.746 17.664C145.746 17.088 145.629 16.6294 145.394 16.288C145.16 15.9254 144.818 15.6374 144.37 15.424C143.922 15.2107 143.368 15.0507 142.706 14.944C142.045 14.816 141.288 14.7094 140.434 14.624L129.138 13.472C127.794 13.344 126.578 13.1414 125.49 12.864C124.424 12.5654 123.506 12.1707 122.738 11.68C121.97 11.168 121.384 10.5387 120.978 9.79203C120.573 9.04537 120.37 8.1387 120.37 7.07203C120.37 5.8987 120.616 4.9067 121.106 4.09603C121.618 3.28537 122.333 2.6347 123.25 2.14403C124.168 1.65337 125.266 1.30137 126.546 1.08803C127.826 0.874701 129.245 0.768034 130.802 0.768034H148.722V4.09603H131.154C129.938 4.09603 128.925 4.1387 128.114 4.22403C127.304 4.30937 126.653 4.46937 126.162 4.70403C125.672 4.91737 125.32 5.21603 125.106 5.60003C124.893 5.9627 124.786 6.42137 124.786 6.97603C124.786 7.55203 124.914 8.02137 125.17 8.38403C125.426 8.72537 125.789 9.0027 126.258 9.21603C126.728 9.42937 127.282 9.58937 127.922 9.69603C128.584 9.8027 129.309 9.8987 130.098 9.98403L141.49 11.136C142.92 11.2854 144.178 11.5094 145.266 11.808C146.354 12.0854 147.261 12.48 147.986 12.992C148.712 13.4827 149.256 14.1014 149.618 14.848C149.981 15.5947 150.162 16.5014 150.162 17.568C150.162 19.936 149.256 21.6 147.442 22.56C145.629 23.52 142.856 24 139.122 24H121.618Z" fill="#181818"/>
<path d="M156.146 0.768034H160.594V24H156.146V0.768034Z" fill="#181818"/>
<path d="M182.523 24H178.075V4.12803H165.595V0.768034H195.003V4.12803H182.523V24Z" fill="#181818"/>
<path d="M226.742 24H199.926V0.768034H226.614V4.12803H204.374V10.496H219.51V13.792H204.374V20.64H226.742V24Z" fill="#181818"/>
<path d="M241.643 12.384C241.643 10.5067 241.91 8.8427 242.443 7.39203C242.977 5.94137 243.755 4.72537 244.779 3.74403C245.441 3.10403 246.177 2.5707 246.987 2.14403C247.819 1.71737 248.779 1.37603 249.867 1.12003C250.955 0.8427 252.193 0.6507 253.579 0.544033C254.987 0.437366 256.598 0.384033 258.411 0.384033H260.459C262.273 0.384033 263.873 0.437366 265.259 0.544033C266.667 0.6507 267.915 0.8427 269.003 1.12003C270.091 1.37603 271.041 1.71737 271.851 2.14403C272.683 2.5707 273.43 3.10403 274.091 3.74403C275.115 4.72537 275.894 5.94137 276.427 7.39203C276.961 8.8427 277.227 10.5067 277.227 12.384C277.227 14.2614 276.961 15.9254 276.427 17.376C275.894 18.8267 275.115 20.0427 274.091 21.024C273.43 21.664 272.683 22.1974 271.851 22.624C271.041 23.0507 270.091 23.4027 269.003 23.68C267.915 23.936 266.667 24.1174 265.259 24.224C263.873 24.3307 262.273 24.384 260.459 24.384H258.411C256.598 24.384 254.987 24.3307 253.579 24.224C252.193 24.1174 250.955 23.936 249.867 23.68C248.779 23.4027 247.819 23.0507 246.987 22.624C246.177 22.1974 245.441 21.664 244.779 21.024C243.755 20.0427 242.977 18.8267 242.443 17.376C241.91 15.9254 241.643 14.2614 241.643 12.384ZM272.523 12.384C272.523 11.168 272.395 10.0267 272.139 8.96003C271.905 7.89337 271.425 6.9867 270.699 6.24003C270.251 5.79203 269.718 5.42937 269.099 5.15203C268.481 4.85337 267.745 4.62937 266.891 4.48003C266.038 4.30937 265.057 4.19203 263.947 4.12803C262.859 4.06403 261.622 4.03203 260.235 4.03203H258.635C257.249 4.03203 256.001 4.06403 254.891 4.12803C253.803 4.19203 252.833 4.30937 251.979 4.48003C251.126 4.62937 250.39 4.85337 249.771 5.15203C249.153 5.42937 248.619 5.79203 248.171 6.24003C247.446 6.9867 246.955 7.89337 246.699 8.96003C246.465 10.0267 246.347 11.168 246.347 12.384C246.347 13.6 246.465 14.7414 246.699 15.808C246.955 16.8747 247.446 17.7814 248.171 18.528C248.619 18.976 249.153 19.3494 249.771 19.648C250.39 19.9254 251.126 20.1494 251.979 20.32C252.833 20.4694 253.803 20.576 254.891 20.64C256.001 20.704 257.249 20.736 258.635 20.736H260.235C261.622 20.736 262.859 20.704 263.947 20.64C265.057 20.576 266.038 20.4694 266.891 20.32C267.745 20.1494 268.481 19.9254 269.099 19.648C269.718 19.3494 270.251 18.976 270.699 18.528C271.425 17.7814 271.905 16.8747 272.139 15.808C272.395 14.7414 272.523 13.6 272.523 12.384Z" fill="#181818"/>
<path d="M282.864 0.768034H309.04V4.12803H287.312V10.496H301.936V13.792H287.312V24H282.864V0.768034Z" fill="#181818"/>
<path d="M339.461 24H335.013V4.12803H322.533V0.768034H351.941V4.12803H339.461V24Z" fill="#181818"/>
<path d="M387.84 24H383.392V13.568H361.312V24H356.864V0.768034H361.312V10.112H383.392V0.768034H387.84V24Z" fill="#181818"/>
<path d="M421.711 24H394.895V0.768034H421.583V4.12803H399.343V10.496H414.479V13.792H399.343V20.64H421.711V24Z" fill="#181818"/>
<path d="M3.58398 50.768H8.03198V74H3.58398V50.768Z" fill="#181818"/>
<path d="M19.145 50.768L42.665 69.168V50.768H46.889V74H42.889L19.369 55.6V74H15.145V50.768H19.145Z" fill="#181818"/>
<path d="M54.1182 74V70.672H71.1742C72.2836 70.672 73.2756 70.6507 74.1502 70.608C75.0462 70.544 75.7929 70.416 76.3902 70.224C76.9876 70.0107 77.4462 69.7014 77.7662 69.296C78.0862 68.8907 78.2462 68.3467 78.2462 67.664C78.2462 67.088 78.1289 66.6294 77.8942 66.288C77.6596 65.9254 77.3182 65.6374 76.8702 65.424C76.4222 65.2107 75.8676 65.0507 75.2062 64.944C74.5449 64.816 73.7876 64.7094 72.9342 64.624L61.6382 63.472C60.2942 63.344 59.0782 63.1414 57.9902 62.864C56.9236 62.5654 56.0062 62.1707 55.2382 61.68C54.4702 61.168 53.8836 60.5387 53.4782 59.792C53.0729 59.0454 52.8702 58.1387 52.8702 57.072C52.8702 55.8987 53.1156 54.9067 53.6062 54.096C54.1182 53.2854 54.8329 52.6347 55.7502 52.144C56.6676 51.6534 57.7662 51.3014 59.0462 51.088C60.3262 50.8747 61.7449 50.768 63.3022 50.768H81.2222V54.096H63.6542C62.4382 54.096 61.4249 54.1387 60.6142 54.224C59.8036 54.3094 59.1529 54.4694 58.6622 54.704C58.1716 54.9174 57.8196 55.216 57.6062 55.6C57.3929 55.9627 57.2862 56.4214 57.2862 56.976C57.2862 57.552 57.4142 58.0214 57.6702 58.384C57.9262 58.7254 58.2889 59.0027 58.7582 59.216C59.2276 59.4294 59.7822 59.5894 60.4222 59.696C61.0836 59.8027 61.8089 59.8987 62.5982 59.984L73.9902 61.136C75.4196 61.2854 76.6782 61.5094 77.7662 61.808C78.8542 62.0854 79.7609 62.48 80.4862 62.992C81.2116 63.4827 81.7556 64.1014 82.1182 64.848C82.4809 65.5947 82.6622 66.5014 82.6622 67.568C82.6622 69.936 81.7556 71.6 79.9422 72.56C78.1289 73.52 75.3556 74 71.6222 74H54.1182Z" fill="#181818"/>
<path d="M118.517 65.168C118.517 66.64 118.336 67.8454 117.973 68.784C117.632 69.7227 117.099 70.544 116.373 71.248C115.221 72.3787 113.589 73.1894 111.477 73.68C109.365 74.1494 106.741 74.384 103.605 74.384H102.357C99.2215 74.384 96.5975 74.1494 94.4855 73.68C92.3735 73.1894 90.7415 72.3787 89.5895 71.248C88.8641 70.544 88.3201 69.7227 87.9575 68.784C87.6161 67.8454 87.4455 66.64 87.4455 65.168V50.768H91.8615V64.336C91.8615 65.424 91.9575 66.32 92.1495 67.024C92.3415 67.728 92.7148 68.3254 93.2695 68.816C93.9948 69.4987 95.0935 70.0107 96.5655 70.352C98.0588 70.672 100.075 70.832 102.613 70.832H103.381C105.92 70.832 107.925 70.672 109.397 70.352C110.869 70.0107 111.979 69.4987 112.725 68.816C113.28 68.3254 113.653 67.728 113.845 67.024C114.037 66.32 114.133 65.424 114.133 64.336V50.768H118.517V65.168Z" fill="#181818"/>
<path d="M129.499 66.96V74H125.051V50.768H144.667C146.502 50.768 148.081 50.96 149.403 51.344C150.747 51.7067 151.846 52.3147 152.699 53.168C153.339 53.808 153.83 54.5974 154.171 55.536C154.534 56.4747 154.715 57.584 154.715 58.864C154.715 60.144 154.534 61.2534 154.171 62.192C153.83 63.1307 153.339 63.92 152.699 64.56C151.569 65.6907 149.947 66.416 147.835 66.736C148.326 67.0134 148.838 67.3547 149.371 67.76C149.905 68.1654 150.555 68.7094 151.323 69.392L156.443 74H150.619L144.187 68.176C143.889 67.92 143.622 67.7174 143.387 67.568C143.153 67.3974 142.918 67.2694 142.683 67.184C142.449 67.0987 142.193 67.0454 141.915 67.024C141.659 66.9814 141.35 66.96 140.987 66.96H129.499ZM144.251 63.6C145.467 63.6 146.459 63.5147 147.227 63.344C147.995 63.152 148.603 62.8427 149.051 62.416C149.777 61.6907 150.139 60.5067 150.139 58.864C150.139 57.2214 149.777 56.0374 149.051 55.312C148.603 54.8854 147.995 54.5867 147.227 54.416C146.459 54.224 145.467 54.128 144.251 54.128H129.499V63.6H144.251Z" fill="#181818"/>
<path d="M186.505 69.52H166.889L163.913 74H158.921L174.697 50.768H178.665L194.537 74H189.513L186.505 69.52ZM169.161 66.128H184.233L176.681 54.896L169.161 66.128Z" fill="#181818"/>
<path d="M202.707 50.768L226.227 69.168V50.768H230.451V74H226.451L202.931 55.6V74H198.707V50.768H202.707Z" fill="#181818"/>
<path d="M264.593 70.608V74H252.625C250.854 74 249.286 73.9574 247.921 73.872C246.555 73.7867 245.339 73.6267 244.273 73.392C243.206 73.1574 242.267 72.848 241.457 72.464C240.646 72.08 239.91 71.5787 239.249 70.96C238.203 70 237.414 68.816 236.881 67.408C236.347 66 236.081 64.3254 236.081 62.384C236.081 60.4427 236.347 58.768 236.881 57.36C237.414 55.952 238.203 54.768 239.249 53.808C239.91 53.2107 240.646 52.72 241.457 52.336C242.267 51.9307 243.206 51.6107 244.273 51.376C245.339 51.1414 246.555 50.9814 247.921 50.896C249.286 50.8107 250.854 50.768 252.625 50.768H264.593V54.16H252.977C251.59 54.16 250.342 54.192 249.233 54.256C248.145 54.2987 247.185 54.3947 246.353 54.544C245.521 54.6934 244.795 54.9067 244.177 55.184C243.558 55.4614 243.035 55.824 242.609 56.272C241.905 57.0187 241.425 57.9254 241.169 58.992C240.913 60.0587 240.785 61.1894 240.785 62.384C240.785 63.5787 240.913 64.7094 241.169 65.776C241.425 66.8427 241.905 67.7494 242.609 68.496C243.035 68.944 243.558 69.3067 244.177 69.584C244.795 69.8614 245.521 70.0747 246.353 70.224C247.185 70.3734 248.145 70.48 249.233 70.544C250.342 70.5867 251.59 70.608 252.977 70.608H264.593Z" fill="#181818"/>
<path d="M297.055 74H270.239V50.768H296.927V54.128H274.687V60.496H289.823V63.792H274.687V70.64H297.055V74Z" fill="#181818"/>
<path d="M340.468 70.608V74H328.5C326.729 74 325.161 73.9574 323.796 73.872C322.43 73.7867 321.214 73.6267 320.148 73.392C319.081 73.1574 318.142 72.848 317.332 72.464C316.521 72.08 315.785 71.5787 315.124 70.96C314.078 70 313.289 68.816 312.756 67.408C312.222 66 311.956 64.3254 311.956 62.384C311.956 60.4427 312.222 58.768 312.756 57.36C313.289 55.952 314.078 54.768 315.124 53.808C315.785 53.2107 316.521 52.72 317.332 52.336C318.142 51.9307 319.081 51.6107 320.148 51.376C321.214 51.1414 322.43 50.9814 323.796 50.896C325.161 50.8107 326.729 50.768 328.5 50.768H340.468V54.16H328.852C327.465 54.16 326.217 54.192 325.108 54.256C324.02 54.2987 323.06 54.3947 322.228 54.544C321.396 54.6934 320.67 54.9067 320.052 55.184C319.433 55.4614 318.91 55.824 318.484 56.272C317.78 57.0187 317.3 57.9254 317.044 58.992C316.788 60.0587 316.66 61.1894 316.66 62.384C316.66 63.5787 316.788 64.7094 317.044 65.776C317.3 66.8427 317.78 67.7494 318.484 68.496C318.91 68.944 319.433 69.3067 320.052 69.584C320.67 69.8614 321.396 70.0747 322.228 70.224C323.06 70.3734 324.02 70.48 325.108 70.544C326.217 70.5867 327.465 70.608 328.852 70.608H340.468Z" fill="#181818"/>
<path d="M343.424 62.384C343.424 60.5067 343.691 58.8427 344.224 57.392C344.758 55.9414 345.536 54.7254 346.56 53.744C347.222 53.104 347.958 52.5707 348.768 52.144C349.6 51.7174 350.56 51.376 351.648 51.12C352.736 50.8427 353.974 50.6507 355.36 50.544C356.768 50.4374 358.379 50.384 360.192 50.384H362.24C364.054 50.384 365.654 50.4374 367.04 50.544C368.448 50.6507 369.696 50.8427 370.784 51.12C371.872 51.376 372.822 51.7174 373.632 52.144C374.464 52.5707 375.211 53.104 375.872 53.744C376.896 54.7254 377.675 55.9414 378.208 57.392C378.742 58.8427 379.008 60.5067 379.008 62.384C379.008 64.2614 378.742 65.9254 378.208 67.376C377.675 68.8267 376.896 70.0427 375.872 71.024C375.211 71.664 374.464 72.1974 373.632 72.624C372.822 73.0507 371.872 73.4027 370.784 73.68C369.696 73.936 368.448 74.1174 367.04 74.224C365.654 74.3307 364.054 74.384 362.24 74.384H360.192C358.379 74.384 356.768 74.3307 355.36 74.224C353.974 74.1174 352.736 73.936 351.648 73.68C350.56 73.4027 349.6 73.0507 348.768 72.624C347.958 72.1974 347.222 71.664 346.56 71.024C345.536 70.0427 344.758 68.8267 344.224 67.376C343.691 65.9254 343.424 64.2614 343.424 62.384ZM374.304 62.384C374.304 61.168 374.176 60.0267 373.92 58.96C373.686 57.8934 373.206 56.9867 372.48 56.24C372.032 55.792 371.499 55.4294 370.88 55.152C370.262 54.8534 369.526 54.6294 368.672 54.48C367.819 54.3094 366.838 54.192 365.728 54.128C364.64 54.064 363.403 54.032 362.016 54.032H360.416C359.03 54.032 357.782 54.064 356.672 54.128C355.584 54.192 354.614 54.3094 353.76 54.48C352.907 54.6294 352.171 54.8534 351.552 55.152C350.934 55.4294 350.4 55.792 349.952 56.24C349.227 56.9867 348.736 57.8934 348.48 58.96C348.246 60.0267 348.128 61.168 348.128 62.384C348.128 63.6 348.246 64.7414 348.48 65.808C348.736 66.8747 349.227 67.7814 349.952 68.528C350.4 68.976 350.934 69.3494 351.552 69.648C352.171 69.9254 352.907 70.1494 353.76 70.32C354.614 70.4694 355.584 70.576 356.672 70.64C357.782 70.704 359.03 70.736 360.416 70.736H362.016C363.403 70.736 364.64 70.704 365.728 70.64C366.838 70.576 367.819 70.4694 368.672 70.32C369.526 70.1494 370.262 69.9254 370.88 69.648C371.499 69.3494 372.032 68.976 372.48 68.528C373.206 67.7814 373.686 66.8747 373.92 65.808C374.176 64.7414 374.304 63.6 374.304 62.384Z" fill="#181818"/>
<path d="M422.341 74H417.989V57.328L405.573 72.976H401.701L388.869 57.392V74H384.645V50.768H388.389L403.717 69.424L418.501 50.768H422.341V74Z" fill="#181818"/>
<path d="M448.595 63.6C449.811 63.6 450.803 63.5147 451.571 63.344C452.339 63.152 452.947 62.8427 453.395 62.416C454.12 61.6907 454.483 60.5067 454.483 58.864C454.483 57.2214 454.12 56.0374 453.395 55.312C452.947 54.8854 452.339 54.5867 451.571 54.416C450.803 54.224 449.811 54.128 448.595 54.128H433.843V63.6H448.595ZM433.843 66.96V74H429.395V50.768H449.011C450.846 50.768 452.424 50.96 453.747 51.344C455.091 51.7067 456.19 52.3147 457.043 53.168C457.683 53.808 458.174 54.5974 458.515 55.536C458.878 56.4747 459.059 57.584 459.059 58.864C459.059 60.144 458.878 61.2534 458.515 62.192C458.174 63.1307 457.683 63.92 457.043 64.56C456.19 65.4134 455.091 66.032 453.747 66.416C452.424 66.7787 450.846 66.96 449.011 66.96H433.843Z" fill="#181818"/>
<path d="M485.318 69.52H465.702L462.726 74H457.734L473.51 50.768H477.478L493.35 74H488.326L485.318 69.52ZM467.974 66.128H483.046L475.494 54.896L467.974 66.128Z" fill="#181818"/>
<path d="M501.52 50.768L525.04 69.168V50.768H529.264V74H525.264L501.744 55.6V74H497.52V50.768H501.52Z" fill="#181818"/>
<path d="M552.813 74H548.333V65.84L532.941 50.768H538.349L550.733 62.96L563.053 50.768H568.237L552.813 65.936V74Z" fill="#181818"/>
</svg>
