<svg width="373" height="112" viewBox="0 0 373 112" fill="none" xmlns="http://www.w3.org/2000/svg">
<path fill-rule="evenodd" clip-rule="evenodd" d="M55.8279 27.3907L55.8306 27.3902C61.756 26.4546 69.5658 25.992 79.2406 25.992H141.689V1.196H74.9286C60.1907 1.196 47.9552 2.37368 38.2016 4.71048C28.4847 7.03847 20.8087 11.0701 15.1137 16.7651C10.6103 21.2684 7.19557 26.8332 4.87888 33.4811C2.5606 40.1335 1.39258 47.6682 1.39258 56.098C1.39258 64.5278 2.5606 72.0625 4.87888 78.7149C7.19557 85.3628 10.6103 90.9276 15.1137 95.4309C20.8087 101.126 28.4847 105.158 38.2016 107.486C47.9552 109.822 60.1907 111 74.9286 111H141.689V86.204H79.2406C69.5658 86.204 61.756 85.7413 55.8306 84.8058L55.8279 84.8053C49.9676 83.8635 45.2671 82.0179 41.804 79.2041C38.9804 76.9228 36.9278 73.9409 35.6396 70.2908L35.6366 70.2823C34.356 66.547 33.7346 61.8067 33.7346 56.098C33.7346 50.3931 34.3551 45.7007 35.6382 42.063C36.9244 38.3142 38.9754 35.2771 41.8045 32.9915C45.2675 30.1779 49.9679 28.3324 55.8279 27.3907ZM42.4346 33.768C39.7652 35.924 37.8146 38.7987 36.5826 42.392C35.3506 45.8827 34.7346 50.4513 34.7346 56.098C34.7346 61.7447 35.3506 66.3647 36.5826 69.958C37.8146 73.4487 39.7652 76.272 42.4346 78.428C45.7199 81.0973 50.2372 82.894 55.9866 83.818C61.8386 84.742 69.5899 85.204 79.2406 85.204H142.689V112H74.9286C60.1446 112 47.8246 110.819 37.9686 108.458C28.1126 106.097 20.2586 101.99 14.4066 96.138C9.78658 91.518 6.29591 85.82 3.93458 79.044C1.57325 72.268 0.392578 64.6193 0.392578 56.098C0.392578 47.5767 1.57325 39.928 3.93458 33.152C6.29591 26.376 9.78658 20.678 14.4066 16.058C20.2586 10.206 28.1126 6.09933 37.9686 3.738C47.8246 1.37666 60.1446 0.195999 74.9286 0.195999H142.689V26.992H79.2406C69.5899 26.992 61.8386 27.454 55.9866 28.378C50.2372 29.302 45.7199 31.0987 42.4346 33.768ZM212.836 27.3907L212.838 27.3902C218.764 26.4546 226.574 25.992 236.248 25.992H305.934V1.196H231.936C217.199 1.196 204.963 2.37368 195.209 4.71048C185.493 7.03847 177.816 11.0701 172.122 16.7651C167.618 21.2684 164.203 26.8332 161.887 33.4811C159.568 40.1335 158.4 47.6682 158.4 56.098C158.4 64.5278 159.568 72.0625 161.887 78.7149C164.203 85.3628 167.618 90.9276 172.122 95.4309C177.816 101.126 185.493 105.158 195.209 107.486C204.963 109.822 217.199 111 231.936 111H309.014V52.324H277.75V86.204H236.248C226.574 86.204 218.764 85.7413 212.838 84.8058L212.836 84.8053C206.975 83.8635 202.275 82.0179 198.812 79.2041C195.988 76.9228 193.936 73.9409 192.647 70.2908L192.644 70.2823C191.364 66.547 190.742 61.8067 190.742 56.098C190.742 50.3927 191.363 45.7001 192.646 42.0622C193.932 38.314 195.983 35.2773 198.812 32.9919C202.275 30.1781 206.975 28.3325 212.836 27.3907ZM199.442 33.768C196.773 35.924 194.822 38.7987 193.59 42.392C192.358 45.8827 191.742 50.4513 191.742 56.098C191.742 61.7447 192.358 66.3647 193.59 69.958C194.822 73.4487 196.773 76.272 199.442 78.428C202.728 81.0973 207.245 82.894 212.994 83.818C218.846 84.742 226.598 85.204 236.248 85.204H276.75V51.324H310.014V112H231.936C217.152 112 204.832 110.819 194.976 108.458C185.12 106.097 177.266 101.99 171.414 96.138C166.794 91.518 163.304 85.82 160.942 79.044C158.581 72.268 157.4 64.6193 157.4 56.098C157.4 47.5767 158.581 39.928 160.942 33.152C163.304 26.376 166.794 20.678 171.414 16.058C177.266 10.206 185.12 6.09933 194.976 3.738C204.832 1.37666 217.152 0.195999 231.936 0.195999H306.934V26.992H236.248C226.598 26.992 218.846 27.454 212.994 28.378C207.245 29.302 202.728 31.0987 199.442 33.768ZM339.959 111H371.069V1.196H339.959V111ZM372.069 112V0.195999H338.959V112H372.069Z" fill="white"/>
</svg>
