<svg width="250" height="74" viewBox="0 0 250 74" fill="none" xmlns="http://www.w3.org/2000/svg">
<path d="M28.2241 19.5199H8.60814L5.63214 23.9999H0.640137L16.4161 0.767944H20.3841L36.2561 23.9999H31.2321L28.2241 19.5199ZM10.8801 16.1279H25.9521L18.4001 4.89594L10.8801 16.1279Z" fill="#181818"/>
<path d="M51.3014 0.767944H77.4774V4.12794H55.7494V10.4959H70.3734V13.7919H55.7494V23.9999H51.3014V0.767944Z" fill="#181818"/>
<path d="M109.024 23.9999H82.2076V0.767944H108.896V4.12794H86.6556V10.4959H101.792V13.7919H86.6556V20.6399H109.024V23.9999Z" fill="#181818"/>
<path d="M125.818 19.4239L134.938 0.767944H138.01L147.13 19.4879L156.922 0.767944H161.338L149.082 23.9999H145.018L136.442 6.30394L127.77 23.9999H123.706L111.418 0.767944H116.058L125.818 19.4239Z" fill="#181818"/>
<path d="M3.52014 50.7679H23.5841C25.2695 50.7679 26.7095 50.9279 27.9041 51.2479C29.0988 51.5466 30.0695 52.0373 30.8161 52.7199C31.9041 53.7013 32.4481 55.0453 32.4481 56.7519C32.4481 57.9039 32.1281 58.9173 31.4881 59.7919C30.8481 60.6453 29.9841 61.2746 28.8961 61.6799C29.5788 61.8506 30.2081 62.1066 30.7841 62.4479C31.3815 62.7679 31.8935 63.1733 32.3201 63.6639C32.7468 64.1546 33.0775 64.7199 33.3121 65.3599C33.5681 65.9786 33.6961 66.6719 33.6961 67.4399C33.6961 68.4213 33.5148 69.3066 33.1521 70.0959C32.7895 70.8853 32.2668 71.5573 31.5841 72.1119C30.7735 72.7519 29.7708 73.2319 28.5761 73.5519C27.4028 73.8506 25.9521 73.9999 24.2241 73.9999H3.52014V50.7679ZM24.0961 70.7359C25.2268 70.7359 26.0908 70.6613 26.6881 70.5119C27.3068 70.3626 27.7975 70.1173 28.1601 69.7759C28.5015 69.4773 28.7468 69.1039 28.8961 68.6559C29.0455 68.1866 29.1201 67.6746 29.1201 67.1199C29.1201 66.5653 29.0455 66.0746 28.8961 65.6479C28.7468 65.1999 28.5015 64.8266 28.1601 64.5279C27.7975 64.1866 27.3068 63.9413 26.6881 63.7919C26.0908 63.6426 25.2268 63.5679 24.0961 63.5679H7.96814V70.7359H24.0961ZM23.2001 60.4959C24.1601 60.4959 24.9388 60.4533 25.5361 60.3679C26.1548 60.2613 26.6455 60.0373 27.0081 59.6959C27.3068 59.4399 27.5415 59.1199 27.7121 58.7359C27.8828 58.3306 27.9681 57.8506 27.9681 57.2959C27.9681 56.7413 27.8828 56.2719 27.7121 55.8879C27.5415 55.4826 27.3068 55.1519 27.0081 54.8959C26.6455 54.5546 26.1548 54.3306 25.5361 54.2239C24.9388 54.1173 24.1601 54.0639 23.2001 54.0639H7.96814V60.4959H23.2001Z" fill="#181818"/>
<path d="M63.0054 69.5199H43.3894L40.4134 73.9999H35.4214L51.1974 50.7679H55.1654L71.0374 73.9999H66.0134L63.0054 69.5199ZM45.6614 66.1279H60.7334L53.1814 54.8959L45.6614 66.1279Z" fill="#181818"/>
<path d="M79.2076 50.7679L102.728 69.1679V50.7679H106.952V73.9999H102.952L79.4316 55.5999V73.9999H75.2076V50.7679H79.2076Z" fill="#181818"/>
<path d="M117.989 50.7679L141.509 69.1679V50.7679H145.733V73.9999H141.733L118.213 55.5999V73.9999H113.989V50.7679H117.989Z" fill="#181818"/>
<path d="M179.586 73.9999H152.77V50.7679H179.458V54.1279H157.218V60.4959H172.354V63.7919H157.218V70.6399H179.586V73.9999Z" fill="#181818"/>
<path d="M189.468 66.9599V73.9999H185.02V50.7679H204.636C206.471 50.7679 208.049 50.9599 209.372 51.3439C210.716 51.7066 211.815 52.3146 212.668 53.1679C213.308 53.8079 213.799 54.5973 214.14 55.5359C214.503 56.4746 214.684 57.5839 214.684 58.8639C214.684 60.1439 214.503 61.2533 214.14 62.1919C213.799 63.1306 213.308 63.9199 212.668 64.5599C211.537 65.6906 209.916 66.4159 207.804 66.7359C208.295 67.0133 208.807 67.3546 209.34 67.7599C209.873 68.1653 210.524 68.7093 211.292 69.3919L216.412 73.9999H210.588L204.156 68.1759C203.857 67.9199 203.591 67.7173 203.356 67.5679C203.121 67.3973 202.887 67.2693 202.652 67.1839C202.417 67.0986 202.161 67.0453 201.884 67.0239C201.628 66.9813 201.319 66.9599 200.956 66.9599H189.468ZM204.22 63.5999C205.436 63.5999 206.428 63.5146 207.196 63.3439C207.964 63.1519 208.572 62.8426 209.02 62.4159C209.745 61.6906 210.108 60.5066 210.108 58.8639C210.108 57.2213 209.745 56.0373 209.02 55.3119C208.572 54.8853 207.964 54.5866 207.196 54.4159C206.428 54.2239 205.436 54.1279 204.22 54.1279H189.468V63.5999H204.22Z" fill="#181818"/>
<path d="M220.993 73.9999V70.6719H238.049C239.159 70.6719 240.151 70.6506 241.025 70.6079C241.921 70.5439 242.668 70.4159 243.265 70.2239C243.863 70.0106 244.321 69.7013 244.641 69.2959C244.961 68.8906 245.121 68.3466 245.121 67.6639C245.121 67.0879 245.004 66.6293 244.769 66.2879C244.535 65.9253 244.193 65.6373 243.745 65.4239C243.297 65.2106 242.743 65.0506 242.081 64.9439C241.42 64.8159 240.663 64.7093 239.809 64.6239L228.513 63.4719C227.169 63.3439 225.953 63.1413 224.865 62.8639C223.799 62.5653 222.881 62.1706 222.113 61.6799C221.345 61.1679 220.759 60.5386 220.353 59.7919C219.948 59.0453 219.745 58.1386 219.745 57.0719C219.745 55.8986 219.991 54.9066 220.481 54.0959C220.993 53.2853 221.708 52.6346 222.625 52.1439C223.543 51.6533 224.641 51.3013 225.921 51.0879C227.201 50.8746 228.62 50.7679 230.177 50.7679H248.097V54.0959H230.529C229.313 54.0959 228.3 54.1386 227.489 54.2239C226.679 54.3093 226.028 54.4693 225.537 54.7039C225.047 54.9173 224.695 55.2159 224.481 55.5999C224.268 55.9626 224.161 56.4213 224.161 56.9759C224.161 57.5519 224.289 58.0213 224.545 58.3839C224.801 58.7253 225.164 59.0026 225.633 59.216C226.103 59.4293 226.657 59.5893 227.297 59.6959C227.959 59.8026 228.684 59.8986 229.473 59.9839L240.865 61.1359C242.295 61.2853 243.553 61.5093 244.641 61.8079C245.729 62.0853 246.636 62.4799 247.361 62.9919C248.087 63.4826 248.631 64.1013 248.993 64.8479C249.356 65.5946 249.537 66.5013 249.537 67.5679C249.537 69.9359 248.631 71.5999 246.817 72.5599C245.004 73.5199 242.231 73.9999 238.497 73.9999H220.993Z" fill="#181818"/>
</svg>
