<svg width="587" height="89" viewBox="0 0 587 89" fill="none" xmlns="http://www.w3.org/2000/svg">
<path d="M63.9133 66.5H26.6033C21.386 66.5 17.0483 65.9236 13.5903 64.771C10.193 63.6183 7.463 61.9803 5.40033 59.857C3.70166 58.0976 2.45799 56.0653 1.66933 53.76C0.880662 51.394 0.486328 48.755 0.486328 45.843C0.486328 42.931 0.880662 40.3223 1.66933 38.017C2.45799 35.651 3.70166 33.5883 5.40033 31.829C7.463 29.7056 10.193 28.098 13.5903 27.006C17.0483 25.8533 21.386 25.277 26.6033 25.277H63.9133V38.745H28.8783C26.755 38.745 24.9957 38.8663 23.6003 39.109C22.2657 39.291 21.204 39.6853 20.4153 40.292C19.6267 40.8986 19.111 41.7176 18.8683 42.749C18.6257 43.7196 18.5043 44.751 18.5043 45.843C18.5043 47.3596 18.656 48.573 18.9593 49.483C19.3233 50.3323 19.8087 50.9996 20.4153 51.485C21.204 52.0916 22.2657 52.5163 23.6003 52.759C24.9957 52.941 26.755 53.032 28.8783 53.032H63.9133V66.5Z" fill="#333333"/>
<path d="M138.149 38.745C136.026 38.745 134.267 38.836 132.871 39.018C131.537 39.2 130.475 39.5943 129.686 40.201C129.019 40.6863 128.534 41.4446 128.23 42.476C127.927 43.4466 127.775 44.569 127.775 45.843C127.775 47.117 127.927 48.2696 128.23 49.301C128.534 50.3323 129.019 51.0906 129.686 51.576C130.475 52.1826 131.537 52.577 132.871 52.759C134.267 52.941 136.026 53.032 138.149 53.032H153.437C155.561 53.032 157.29 52.941 158.624 52.759C160.02 52.577 161.112 52.1826 161.9 51.576C162.568 51.0906 163.053 50.3323 163.356 49.301C163.66 48.2696 163.811 47.117 163.811 45.843C163.811 44.569 163.66 43.4466 163.356 42.476C163.053 41.4446 162.568 40.6863 161.9 40.201C161.112 39.5943 160.02 39.2 158.624 39.018C157.29 38.836 155.561 38.745 153.437 38.745H138.149ZM135.874 66.5C130.657 66.5 126.319 65.9236 122.861 64.771C119.464 63.6183 116.734 61.9803 114.671 59.857C112.973 58.0976 111.729 56.0653 110.94 53.76C110.152 51.394 109.757 48.755 109.757 45.843C109.757 42.931 110.152 40.3223 110.94 38.017C111.729 35.651 112.973 33.5883 114.671 31.829C116.734 29.7056 119.464 28.098 122.861 27.006C126.319 25.8533 130.657 25.277 135.874 25.277H155.712C160.93 25.277 165.237 25.8533 168.634 27.006C172.092 28.098 174.853 29.7056 176.915 31.829C178.614 33.5883 179.858 35.651 180.646 38.017C181.435 40.3223 181.829 42.931 181.829 45.843C181.829 48.755 181.435 51.394 180.646 53.76C179.858 56.0653 178.614 58.0976 176.915 59.857C174.853 61.9803 172.092 63.6183 168.634 64.771C165.237 65.9236 160.93 66.5 155.712 66.5H135.874Z" fill="#333333"/>
<path d="M293.683 66.5H251.277C246.06 66.5 241.722 65.9236 238.264 64.771C234.867 63.6183 232.137 61.9803 230.074 59.857C228.376 58.0976 227.132 56.0653 226.343 53.76C225.555 51.394 225.16 48.755 225.16 45.843C225.16 42.931 225.555 40.3223 226.343 38.017C227.132 35.651 228.376 33.5883 230.074 31.829C232.137 29.7056 234.867 28.098 238.264 27.006C241.722 25.8533 246.06 25.277 251.277 25.277H275.847V0.43396H293.683V66.5ZM275.847 53.032V38.745H253.552C251.429 38.745 249.67 38.8663 248.274 39.109C246.94 39.291 245.878 39.6853 245.089 40.292C243.815 41.202 243.178 42.9916 243.178 45.661C243.178 48.573 243.815 50.5143 245.089 51.485C245.878 52.0916 246.94 52.5163 248.274 52.759C249.67 52.941 251.429 53.032 253.552 53.032H275.847Z" fill="#333333"/>
<path d="M342.857 25.277H360.693V66.5H342.857V25.277ZM351.775 19.817C350.077 19.817 348.59 19.726 347.316 19.544C346.103 19.3013 345.072 18.907 344.222 18.361C343.434 17.7543 342.827 16.905 342.402 15.813C341.978 14.721 341.765 13.265 341.765 11.445C341.765 9.62496 341.978 8.16896 342.402 7.07696C342.827 5.98496 343.434 5.13563 344.222 4.52896C345.072 3.92229 346.103 3.52796 347.316 3.34596C348.59 3.1033 350.077 2.98196 351.775 2.98196C353.474 2.98196 354.93 3.1033 356.143 3.34596C357.417 3.52796 358.449 3.92229 359.237 4.52896C360.087 5.13563 360.724 5.98496 361.148 7.07696C361.573 8.16896 361.785 9.62496 361.785 11.445C361.785 13.265 361.573 14.721 361.148 15.813C360.724 16.905 360.087 17.7543 359.237 18.361C358.449 18.907 357.417 19.3013 356.143 19.544C354.93 19.726 353.474 19.817 351.775 19.817Z" fill="#333333"/>
<path d="M448.13 25.277C453.59 25.277 457.867 25.732 460.961 26.642C464.116 27.4913 466.573 28.8563 468.332 30.737C469.97 32.375 471.093 34.3163 471.699 36.561C472.367 38.8056 472.7 41.748 472.7 45.388V66.5H454.864V45.934C454.864 43.0826 454.379 41.202 453.408 40.292C452.741 39.6853 451.831 39.291 450.678 39.109C449.526 38.8663 447.979 38.745 446.037 38.745H427.655V66.5H409.819V25.277H448.13Z" fill="#333333"/>
<path d="M586.75 68.593C586.75 72.233 586.416 75.1753 585.749 77.42C585.142 79.6646 584.02 81.606 582.382 83.244C581.472 84.2146 580.41 85.0336 579.197 85.701C577.983 86.3683 576.558 86.9143 574.92 87.339C573.342 87.8243 571.492 88.158 569.369 88.34C567.306 88.5826 564.91 88.704 562.18 88.704H532.15V74.963H560.087C562.028 74.963 563.575 74.8416 564.728 74.599C565.88 74.417 566.79 74.0226 567.458 73.416C568.428 72.506 568.914 70.6253 568.914 67.774V66.5H544.344C539.126 66.5 534.789 65.9236 531.331 64.771C527.933 63.6183 525.203 61.9803 523.141 59.857C521.442 58.0976 520.198 56.0653 519.41 53.76C518.621 51.394 518.227 48.755 518.227 45.843C518.227 42.931 518.621 40.3223 519.41 38.017C520.198 35.651 521.442 33.5883 523.141 31.829C525.203 29.7056 527.933 28.098 531.331 27.006C534.789 25.8533 539.126 25.277 544.344 25.277H586.75V68.593ZM568.914 38.745H546.619C544.495 38.745 542.736 38.8663 541.341 39.109C540.006 39.291 538.944 39.6853 538.156 40.292C537.367 40.8986 536.851 41.657 536.609 42.567C536.366 43.4163 536.245 44.4173 536.245 45.57C536.245 47.208 536.396 48.482 536.7 49.392C537.064 50.302 537.549 50.9996 538.156 51.485C538.944 52.0916 540.006 52.5163 541.341 52.759C542.736 52.941 544.495 53.032 546.619 53.032H568.914V38.745Z" fill="#333333"/>
</svg>
