<svg width="789" height="90" viewBox="0 0 789 90" fill="none" xmlns="http://www.w3.org/2000/svg">
<path d="M69.1583 69.093C69.1583 72.733 68.8246 75.6753 68.1573 77.92C67.5506 80.1646 66.4283 82.106 64.7903 83.744C63.8803 84.7146 62.8186 85.5336 61.6053 86.201C60.3919 86.8683 58.9663 87.4143 57.3283 87.839C55.7509 88.3243 53.9006 88.658 51.7773 88.84C49.7146 89.0826 47.3183 89.204 44.5883 89.204H14.5583V75.463H42.4953C44.4366 75.463 45.9836 75.3416 47.1363 75.099C48.2889 74.917 49.1989 74.5226 49.8663 73.916C50.8369 73.006 51.3223 71.1253 51.3223 68.274V67H26.7523C21.5349 67 17.1973 66.4236 13.7393 65.271C10.3419 64.1183 7.61192 62.4803 5.54925 60.357C3.85059 58.5976 2.60692 56.5653 1.81825 54.26C1.02959 51.894 0.635254 49.255 0.635254 46.343C0.635254 43.431 1.02959 40.8223 1.81825 38.517C2.60692 36.151 3.85059 34.0883 5.54925 32.329C7.61192 30.2056 10.3419 28.598 13.7393 27.506C17.1973 26.3533 21.5349 25.777 26.7523 25.777H69.1583V69.093ZM51.3223 39.245H29.0273C26.9039 39.245 25.1446 39.3663 23.7493 39.609C22.4146 39.791 21.3529 40.1853 20.5643 40.792C19.7756 41.3986 19.2599 42.157 19.0173 43.067C18.7746 43.9163 18.6533 44.9173 18.6533 46.07C18.6533 47.708 18.8049 48.982 19.1083 49.892C19.4723 50.802 19.9576 51.4996 20.5643 51.985C21.3529 52.5916 22.4146 53.0163 23.7493 53.259C25.1446 53.441 26.9039 53.532 29.0273 53.532H51.3223V39.245Z" fill="#333333"/>
<path d="M144.085 39.245C142.144 39.245 140.597 39.3663 139.444 39.609C138.292 39.791 137.382 40.1853 136.714 40.792C135.744 41.702 135.258 43.5826 135.258 46.434V67H117.422V45.888C117.422 42.248 117.726 39.3056 118.332 37.061C119 34.8163 120.152 32.875 121.79 31.237C123.671 29.3563 126.158 27.9913 129.252 27.142C132.346 26.232 136.593 25.777 141.992 25.777H164.651V39.245H144.085Z" fill="#333333"/>
<path d="M234.453 67C229.235 67 224.898 66.4236 221.44 65.271C218.042 64.1183 215.312 62.4803 213.25 60.357C211.551 58.5976 210.307 56.5653 209.519 54.26C208.73 51.894 208.336 49.255 208.336 46.343C208.336 43.431 208.73 40.8223 209.519 38.517C210.307 36.151 211.551 34.0883 213.25 32.329C215.312 30.2056 218.042 28.598 221.44 27.506C224.898 26.3533 229.235 25.777 234.453 25.777H275.039V67H234.453ZM236.728 39.245C234.604 39.245 232.845 39.336 231.45 39.518C230.115 39.7 229.053 40.0943 228.265 40.701C227.597 41.1863 227.112 41.9446 226.809 42.976C226.505 43.9466 226.354 45.069 226.354 46.343C226.354 47.617 226.505 48.7696 226.809 49.801C227.112 50.8323 227.597 51.5906 228.265 52.076C229.053 52.6826 230.115 53.077 231.45 53.259C232.845 53.441 234.604 53.532 236.728 53.532H257.203V39.245H236.728Z" fill="#333333"/>
<path d="M341.639 89.204H323.803V25.777H366.209C371.426 25.777 375.733 26.3533 379.131 27.506C382.589 28.598 385.349 30.2056 387.412 32.329C389.11 34.0883 390.354 36.151 391.143 38.517C391.931 40.8223 392.326 43.431 392.326 46.343C392.326 49.255 391.931 51.894 391.143 54.26C390.354 56.5653 389.11 58.5976 387.412 60.357C385.349 62.4803 382.589 64.1183 379.131 65.271C375.733 66.4236 371.426 67 366.209 67H341.639V89.204ZM341.639 53.532H363.934C366.057 53.532 367.786 53.441 369.121 53.259C370.516 53.0163 371.608 52.5916 372.397 51.985C373.671 51.0143 374.308 49.164 374.308 46.434C374.308 45.0386 374.186 43.9163 373.944 43.067C373.701 42.157 373.185 41.3986 372.397 40.792C371.608 40.1853 370.516 39.791 369.121 39.609C367.786 39.3663 366.057 39.245 363.934 39.245H341.639V53.532Z" fill="#333333"/>
<path d="M456.242 67H438.406V0.93396H456.242V25.777H476.717C482.177 25.777 486.454 26.232 489.548 27.142C492.702 27.9913 495.159 29.3563 496.919 31.237C498.557 32.875 499.679 34.8163 500.286 37.061C500.953 39.3056 501.287 42.248 501.287 45.888V67H483.451V46.434C483.451 43.5826 482.965 41.702 481.995 40.792C481.327 40.1853 480.417 39.791 479.265 39.609C478.112 39.3663 476.565 39.245 474.624 39.245H456.242V67Z" fill="#333333"/>
<path d="M549.907 25.777H567.743V67H549.907V25.777ZM558.825 20.317C557.126 20.317 555.64 20.226 554.366 20.044C553.153 19.8013 552.121 19.407 551.272 18.861C550.483 18.2543 549.877 17.405 549.452 16.313C549.027 15.221 548.815 13.765 548.815 11.945C548.815 10.125 549.027 8.66896 549.452 7.57696C549.877 6.48496 550.483 5.63563 551.272 5.02896C552.121 4.42229 553.153 4.02796 554.366 3.84596C555.64 3.6033 557.126 3.48196 558.825 3.48196C560.524 3.48196 561.98 3.6033 563.193 3.84596C564.467 4.02796 565.498 4.42229 566.287 5.02896C567.136 5.63563 567.773 6.48496 568.198 7.57696C568.623 8.66896 568.835 10.125 568.835 11.945C568.835 13.765 568.623 15.221 568.198 16.313C567.773 17.405 567.136 18.2543 566.287 18.861C565.498 19.407 564.467 19.8013 563.193 20.044C561.98 20.226 560.524 20.317 558.825 20.317Z" fill="#333333"/>
<path d="M677.566 67H640.256C635.038 67 630.701 66.4236 627.243 65.271C623.845 64.1183 621.115 62.4803 619.053 60.357C617.354 58.5976 616.11 56.5653 615.322 54.26C614.533 51.894 614.139 49.255 614.139 46.343C614.139 43.431 614.533 40.8223 615.322 38.517C616.11 36.151 617.354 34.0883 619.053 32.329C621.115 30.2056 623.845 28.598 627.243 27.506C630.701 26.3533 635.038 25.777 640.256 25.777H677.566V39.245H642.531C640.407 39.245 638.648 39.3663 637.253 39.609C635.918 39.791 634.856 40.1853 634.068 40.792C633.279 41.3986 632.763 42.2176 632.521 43.249C632.278 44.2196 632.157 45.251 632.157 46.343C632.157 47.8596 632.308 49.073 632.612 49.983C632.976 50.8323 633.461 51.4996 634.068 51.985C634.856 52.5916 635.918 53.0163 637.253 53.259C638.648 53.441 640.407 53.532 642.531 53.532H677.566V67Z" fill="#333333"/>
<path d="M726.248 67V55.079H771.02C772.173 55.079 772.749 54.5633 772.749 53.532C772.749 52.5006 772.173 51.985 771.02 51.985H740.99C737.229 51.985 734.286 51.712 732.163 51.166C730.1 50.62 728.432 49.6796 727.158 48.345C726.066 47.1923 725.247 45.8273 724.701 44.25C724.216 42.6726 723.973 40.9436 723.973 39.063C723.973 36.9396 724.276 35.1196 724.883 33.603C725.49 32.0863 726.339 30.7516 727.431 29.599C728.705 28.2643 730.343 27.2936 732.345 26.687C734.347 26.0803 737.229 25.777 740.99 25.777H785.034V37.607H741.081C739.928 37.607 739.352 38.1226 739.352 39.154C739.352 40.1853 739.928 40.701 741.081 40.701H771.111C774.872 40.701 777.784 40.974 779.847 41.52C781.97 42.066 783.669 43.0063 784.943 44.341C786.035 45.4936 786.824 46.8586 787.309 48.436C787.855 50.0133 788.128 51.7423 788.128 53.623C788.128 55.7463 787.825 57.5663 787.218 59.083C786.611 60.5996 785.762 61.9343 784.67 63.087C783.396 64.4216 781.758 65.4226 779.756 66.09C777.754 66.6966 774.872 67 771.111 67H726.248Z" fill="#333333"/>
</svg>
