<svg width="467" height="73" viewBox="0 0 467 73" fill="none" xmlns="http://www.w3.org/2000/svg">
<path d="M25.5185 69C22.7885 69 20.3618 68.909 18.2385 68.727C16.1758 68.4843 14.3255 68.1507 12.6875 67.726C11.1102 67.2407 9.71482 66.6643 8.50149 65.997C7.28815 65.3297 6.22649 64.5107 5.31649 63.54C3.67849 61.902 2.52582 59.9607 1.85849 57.716C1.25182 55.4713 0.948486 52.529 0.948486 48.889V27.777H18.7845V48.343C18.7845 51.1943 19.2698 53.075 20.2405 53.985C20.9078 54.5917 21.8178 55.0163 22.9705 55.259C24.1232 55.441 25.6702 55.532 27.6115 55.532H46.6305V27.777H64.4665V69H25.5185Z" fill="#333333"/>
<path d="M113.618 27.777H131.454V69H113.618V27.777ZM122.536 22.317C120.837 22.317 119.351 22.226 118.077 22.044C116.864 21.8013 115.832 21.407 114.983 20.861C114.194 20.2543 113.588 19.405 113.163 18.313C112.738 17.221 112.526 15.765 112.526 13.945C112.526 12.125 112.738 10.669 113.163 9.57699C113.588 8.485 114.194 7.63566 114.983 7.02899C115.832 6.42233 116.864 6.02799 118.077 5.846C119.351 5.60333 120.837 5.48199 122.536 5.48199C124.235 5.48199 125.691 5.60333 126.904 5.846C128.178 6.02799 129.209 6.42233 129.998 7.02899C130.847 7.63566 131.484 8.485 131.909 9.57699C132.334 10.669 132.546 12.125 132.546 13.945C132.546 15.765 132.334 17.221 131.909 18.313C131.484 19.405 130.847 20.2543 129.998 20.861C129.209 21.407 128.178 21.8013 126.904 22.044C125.691 22.226 124.235 22.317 122.536 22.317Z" fill="#333333"/>
<path d="M197.145 72.64H177.489L223.626 0.567993H243.282L197.145 72.64Z" fill="#333333"/>
<path d="M304.81 69C302.08 69 299.654 68.909 297.53 68.727C295.468 68.4843 293.617 68.1507 291.979 67.726C290.402 67.2407 289.007 66.6643 287.793 65.997C286.58 65.3297 285.518 64.5107 284.608 63.54C282.97 61.902 281.818 59.9607 281.15 57.716C280.544 55.4713 280.24 52.529 280.24 48.889V27.777H298.076V48.343C298.076 51.1943 298.562 53.075 299.532 53.985C300.2 54.5917 301.11 55.0163 302.262 55.259C303.415 55.441 304.962 55.532 306.903 55.532H325.922V27.777H343.758V69H304.81Z" fill="#333333"/>
<path d="M425.306 56.351L409.563 69H386.722L414.477 47.797L388.633 27.777H413.294L426.944 38.424L440.594 27.777H463.617L438.046 47.069L466.347 69H441.595L425.306 56.351Z" fill="#333333"/>
</svg>
