<svg width="819" height="101" viewBox="0 0 819 101" fill="none" xmlns="http://www.w3.org/2000/svg">
<path d="M138.158 50.568C138.158 58.1897 137.102 65.0308 134.991 71.0914C132.879 77.152 129.758 82.2484 125.627 86.3807C120.395 91.6148 113.372 95.2879 104.56 97.3999C95.747 99.512 84.7312 100.568 71.5123 100.568H-1.19199V0.567993H71.5123C84.7312 0.567993 95.747 1.62401 104.56 3.73604C113.372 5.84807 120.395 9.52116 125.627 14.7553C129.758 18.8875 132.879 23.984 134.991 30.0446C137.102 36.1052 138.158 42.9463 138.158 50.568ZM28.413 24.5349V76.601H67.6568C76.2858 76.601 83.1707 76.1878 88.3114 75.3614C93.5439 74.5349 97.6289 72.9279 100.566 70.5404C102.953 68.6121 104.697 66.0868 105.799 62.9647C106.901 59.7507 107.451 55.6185 107.451 50.568C107.451 45.5175 106.901 41.4312 105.799 38.309C104.697 35.0951 102.953 32.5239 100.566 30.5955C97.6289 28.208 93.5439 26.601 88.3114 25.7746C83.1707 24.9481 76.2858 24.5349 67.6568 24.5349H28.413Z" fill="#F5939F"/>
<path d="M188.183 100.568H158.578V0.567993H188.183V100.568Z" fill="#F5939F"/>
<path d="M208.568 50.568C208.568 42.9463 209.623 36.1052 211.735 30.0446C213.846 23.984 216.967 18.8875 221.098 14.7553C226.331 9.52116 233.353 5.84807 242.166 3.73604C250.978 1.62401 261.994 0.567993 275.213 0.567993H342.272V24.5349H279.069C270.44 24.5349 263.509 24.9481 258.276 25.7746C253.136 26.601 249.096 28.208 246.159 30.5955C243.772 32.5239 242.028 35.0951 240.926 38.309C239.825 41.4312 239.274 45.5175 239.274 50.568C239.274 55.6185 239.825 59.7507 240.926 62.9647C242.028 66.0868 243.772 68.6121 246.159 70.5404C249.096 72.9279 253.136 74.5349 258.276 75.3614C263.509 76.1878 270.44 76.601 279.069 76.601H315.283V46.298H345.026V100.568H275.213C261.994 100.568 250.978 99.512 242.166 97.3999C233.353 95.2879 226.331 91.6148 221.098 86.3807C216.967 82.2484 213.846 77.152 211.735 71.0914C209.623 65.0308 208.568 58.1897 208.568 50.568Z" fill="#F5939F"/>
<path d="M400.511 100.568H370.906V0.567993H400.511V100.568Z" fill="#F5939F"/>
<path d="M420.447 0.567993H551.259V23.984H500.587V100.568H470.982V23.984H420.447V0.567993Z" fill="#F5939F"/>
<path d="M647.925 83.7636H578.112L567.234 100.568H534.324L602.072 0.567993H624.654L692.401 100.568H659.078L647.925 83.7636ZM612.674 30.4578L593.397 60.2099H632.365L612.674 30.4578Z" fill="#F5939F"/>
<path d="M818.808 100.568H705.483V0.567993H735.088V76.4633H818.808V100.568Z" fill="#F5939F"/>
</svg>
