<svg width="140" height="100" viewBox="0 0 140 100" fill="none" xmlns="http://www.w3.org/2000/svg">
<path d="M139.35 50C139.35 57.6217 138.294 64.4628 136.183 70.5234C134.071 76.584 130.95 81.6804 126.819 85.8127C121.587 91.0468 114.564 94.7199 105.752 96.832C96.939 98.944 85.9232 100 72.7043 100H0V0H72.7043C85.9232 0 96.939 1.05601 105.752 3.16804C114.564 5.28007 121.587 8.95316 126.819 14.1873C130.95 18.3196 134.071 23.416 136.183 29.4766C138.294 35.5372 139.35 42.3783 139.35 50ZM29.605 23.9669V76.0331H68.8487C77.4778 76.0331 84.3627 75.6198 89.5034 74.7934C94.7359 73.9669 98.8209 72.36 101.758 69.9724C104.145 68.0441 105.889 65.5188 106.991 62.3967C108.093 59.1827 108.643 55.0505 108.643 50C108.643 44.9495 108.093 40.8632 106.991 37.741C105.889 34.5271 104.145 31.9559 101.758 30.0275C98.8209 27.64 94.7359 26.033 89.5034 25.2066C84.3627 24.3802 77.4778 23.9669 68.8487 23.9669H29.605Z" fill="#181818"/>
</svg>
