<svg width="137" height="100" viewBox="0 0 137 100" fill="none" xmlns="http://www.w3.org/2000/svg">
<path d="M0.541748 50C0.541748 42.3783 1.59744 35.5372 3.7088 29.4766C5.82016 23.416 8.94131 18.3196 13.0722 14.1873C18.3047 8.95316 25.3273 5.28007 34.14 3.16804C42.9526 1.05601 53.9684 0 67.1873 0H134.246V23.9669H71.0429C62.4138 23.9669 55.483 24.3802 50.2505 25.2066C45.1098 26.033 41.0707 27.64 38.1332 30.0275C35.7464 31.9559 34.0022 34.5271 32.9007 37.741C31.7991 40.8632 31.2483 44.9495 31.2483 50C31.2483 55.0505 31.7991 59.1827 32.9007 62.3967C34.0022 65.5188 35.7464 68.0441 38.1332 69.9724C41.0707 72.36 45.1098 73.9669 50.2505 74.7934C55.483 75.6198 62.4138 76.0331 71.0429 76.0331H107.257V45.73H137V100H67.1873C53.9684 100 42.9526 98.944 34.14 96.832C25.3273 94.7199 18.3047 91.0468 13.0722 85.8127C8.94131 81.6804 5.82016 76.584 3.7088 70.5234C1.59744 64.4628 0.541748 57.6217 0.541748 50Z" fill="#181818"/>
</svg>
