<svg width="20" height="20" viewBox="0 0 20 20" fill="none" xmlns="http://www.w3.org/2000/svg">
<path d="M17.7989 11.7585L17.7439 12.0037L17.8574 12.2279C18.1395 12.7851 18.2974 13.4176 18.3 14.0928C18.2995 16.4079 16.3941 18.3 14.0224 18.3C13.2869 18.3 12.5964 18.1173 11.9965 17.7984L11.7813 17.6839L11.5415 17.7279C11.0727 17.814 10.5887 17.8596 10.0946 17.8596C5.73016 17.8596 2.20982 14.3734 2.20982 10.0922C2.20982 9.55987 2.26509 9.03807 2.37043 8.53431L2.42661 8.26562L2.28517 8.03036C1.91101 7.408 1.7 6.68456 1.7 5.90809C1.7 3.59257 3.60564 1.7 5.97762 1.7C6.81688 1.7 7.59678 1.93704 8.25633 2.34629L8.4803 2.48527L8.74032 2.44199C9.18484 2.36801 9.63698 2.32762 10.0946 2.32762C14.4591 2.32762 17.9793 5.8139 17.9793 10.0922C17.9793 10.6678 17.9187 11.2247 17.7989 11.7585Z" stroke="white" stroke-width="1.4"/>
<path d="M9.87354 14.192C11.7135 14.192 12.7215 13.136 12.7215 11.872C12.7215 10.4 11.4735 9.93598 10.3535 9.51998C9.47354 9.18398 8.62554 8.91198 8.62554 8.17598C8.62554 7.58398 9.07354 7.05598 10.0495 7.05598C10.7375 7.05598 11.2975 7.34398 11.8255 7.74398L12.4495 6.91198C11.8575 6.43198 11.0095 6.03198 10.0335 6.03198C8.35354 6.03198 7.36154 6.99198 7.36154 8.23998C7.36154 9.55198 8.57754 10.08 9.68154 10.48C10.5295 10.8 11.4575 11.152 11.4575 11.952C11.4575 12.624 10.9455 13.168 9.92154 13.168C8.99354 13.168 8.30554 12.784 7.63354 12.24L6.97754 13.12C7.71354 13.728 8.76954 14.192 9.87354 14.192Z" fill="white"/>
</svg>
