<svg width="20" height="20" viewBox="0 0 20 20" fill="none" xmlns="http://www.w3.org/2000/svg">
<path d="M10.0018 3.44116C7.86632 3.44116 7.61386 3.44817 6.7688 3.48674C5.99037 3.52181 5.56608 3.65155 5.28206 3.76375C4.91038 3.90752 4.64389 4.08284 4.36337 4.36336C4.08285 4.64387 3.91103 4.91037 3.76376 5.28205C3.65506 5.56257 3.52532 5.98685 3.48675 6.76879C3.44818 7.61385 3.44117 7.86632 3.44117 10.0018C3.44117 12.1372 3.44818 12.3897 3.48675 13.2347C3.52182 14.0131 3.65156 14.4374 3.76376 14.7215C3.90753 15.0931 4.08285 15.3596 4.36337 15.6401C4.64389 15.9207 4.91038 16.0925 5.28206 16.2398C5.56258 16.3485 5.98686 16.4782 6.7688 16.5168C7.61386 16.5553 7.86632 16.5623 10.0018 16.5623C12.1372 16.5623 12.3897 16.5553 13.2347 16.5168C14.0132 16.4817 14.4374 16.352 14.7215 16.2398C15.0931 16.096 15.3596 15.9207 15.6402 15.6401C15.9207 15.3596 16.0925 15.0931 16.2398 14.7215C16.3485 14.4409 16.4782 14.0167 16.5168 13.2347C16.5553 12.3897 16.5624 12.1372 16.5624 10.0018C16.5624 7.86632 16.5553 7.61385 16.5168 6.76879C16.4817 5.99036 16.352 5.56608 16.2398 5.28205C16.096 4.91037 15.9207 4.64387 15.6402 4.36336C15.3596 4.08284 15.0931 3.91102 14.7215 3.76375C14.4409 3.65505 14.0167 3.52531 13.2347 3.48674C12.3897 3.44817 12.1372 3.44116 10.0018 3.44116ZM10.0018 2C12.1758 2 12.4458 2.01052 13.3013 2.04909C14.1534 2.08766 14.7355 2.22441 15.2439 2.42078C15.7699 2.62415 16.2152 2.89766 16.6605 3.34298C17.1023 3.7883 17.3758 4.23362 17.5792 4.75959C17.7756 5.26803 17.9123 5.8501 17.9509 6.70217C17.9895 7.55424 18 7.82775 18 9.99825C18 12.1723 17.9895 12.4423 17.9509 13.2978C17.9123 14.1499 17.7756 14.732 17.5792 15.2404C17.3758 15.7664 17.1023 16.2117 16.657 16.657C16.2117 17.1023 15.7664 17.3758 15.2404 17.5792C14.732 17.7756 14.1499 17.9123 13.2978 17.9509C12.4458 17.9895 12.1723 18 9.99825 18C7.82425 18 7.55425 17.9895 6.69867 17.9509C5.8466 17.9123 5.26453 17.7756 4.75609 17.5792C4.23012 17.3758 3.7848 17.1023 3.33948 16.657C2.89416 16.2117 2.62066 15.7664 2.41728 15.2404C2.22092 14.732 2.08417 14.1499 2.0456 13.2978C2.00703 12.4458 1.99651 12.1723 1.99651 9.99825C1.99651 7.82424 2.00703 7.55424 2.0456 6.69866C2.08417 5.84659 2.22092 5.26452 2.41728 4.75608C2.62066 4.23011 2.89416 3.78479 3.33948 3.33947C3.7848 2.89415 4.23012 2.62064 4.75609 2.41727C5.26453 2.22091 5.8466 2.08416 6.69867 2.04558C7.55425 2.01052 7.82775 2 10.0018 2Z" fill="white"/>
<path d="M4.76986 5.73091C4.76986 6.26039 5.20116 6.69168 5.73064 6.69168C6.26011 6.69168 6.69141 6.26039 6.69141 5.73091C6.69141 5.20144 6.26011 4.77014 5.73064 4.77014C5.20116 4.77014 4.76986 5.19793 4.76986 5.73091Z" fill="white"/>
<circle cx="10" cy="10" r="2.5" stroke="white"/>
</svg>
