<svg width="90" height="26" viewBox="0 0 90 26" fill="none" xmlns="http://www.w3.org/2000/svg">
<path d="M12.8261 17.1609H5.05797L3.89855 19H1L7.95652 9H10.0435L17 19H14.1014L12.8261 17.1609ZM6.44927 15.2069H11.4348L8.88406 11.5287L6.44927 15.2069Z" fill="white"/>
<path d="M24 18.0526C24 18.2632 24 18.4737 23.875 18.5789C23.875 18.6842 23.75 18.7895 23.625 18.8947C23.5 19 23.375 19 23.125 19C22.875 19 22.75 19 22.5 19C22.25 19 22 19 21.875 19C21.625 19 21.5 18.8947 21.375 18.8947C21.25 18.7895 21.125 18.6842 21.125 18.5789C21.125 18.4737 21 18.2632 21 18.0526C21 17.8421 21 17.6316 21.125 17.5263C21.25 17.4211 21.25 17.3158 21.375 17.2105C21.5 17.1053 21.625 17.1053 21.875 17C22.125 17 22.25 17 22.5 17C22.75 17 23 17 23.125 17C23.375 17 23.5 17.1053 23.625 17.2105C23.75 17.3158 23.875 17.4211 23.875 17.5263C24 17.6316 24 17.8421 24 18.0526Z" fill="white"/>
<path d="M37.4783 14.1724C37.9304 14.1724 38.2696 14.1724 38.4957 14.0575C38.7217 13.9425 38.9478 13.8276 39.1739 13.7126C39.4 13.4828 39.513 13.023 39.513 12.5632C39.513 11.9885 39.4 11.6437 39.1739 11.4138C39.0609 11.2988 38.8348 11.1839 38.4957 11.069C38.2696 10.954 37.9304 10.954 37.4783 10.954H31.487V14.1724H37.4783ZM31.487 16.1264V19H29V9H37.7043C38.4957 9 39.287 9.11494 39.7391 9.22988C40.1913 9.34483 40.7565 9.68966 41.0957 9.91954C41.4348 10.2644 41.6609 10.6092 41.7739 11.069C41.887 11.5287 42 11.9885 42 12.5632C42 13.1379 41.887 13.5977 41.7739 14.0575C41.6609 14.5172 41.4348 14.8621 41.0957 15.2069C40.7565 15.5517 40.3043 15.7816 39.7391 15.8966C39.1739 16.0115 38.4957 16.1264 37.7043 16.1264H31.487Z" fill="white"/>
</svg>
