<svg width="24" height="24" viewBox="0 0 24 24" fill="none" xmlns="http://www.w3.org/2000/svg">
<path fill-rule="evenodd" clip-rule="evenodd" d="M1.52787 1.01486C1.42894 1.01562 1.33247 1.04582 1.25076 1.1016C1.16906 1.15738 1.1058 1.23622 1.06906 1.32808C1.03232 1.41993 1.02375 1.52066 1.04445 1.6174C1.06514 1.71415 1.11417 1.80253 1.18528 1.87132L11.2993 11.9853L1.18528 22.0993C1.1309 22.1432 1.08636 22.198 1.05456 22.2603C1.02276 22.3225 1.00441 22.3908 1.0007 22.4605C0.996993 22.5303 1.00801 22.6001 1.03303 22.6654C1.05805 22.7306 1.09653 22.7899 1.14595 22.8394C1.19537 22.8888 1.25464 22.9272 1.3199 22.9522C1.38516 22.9773 1.45496 22.9883 1.52475 22.9846C1.59455 22.9809 1.66278 22.9625 1.72502 22.9307C1.78726 22.8989 1.84212 22.8544 1.88602 22.8L12 12.686L22.114 22.8C22.1579 22.8544 22.2127 22.8989 22.275 22.9307C22.3372 22.9625 22.4055 22.9809 22.4753 22.9846C22.545 22.9883 22.6148 22.9773 22.6801 22.9522C22.7454 22.9272 22.8046 22.8888 22.8541 22.8394C22.9035 22.7899 22.9419 22.7306 22.967 22.6654C22.992 22.6001 23.003 22.5303 22.9993 22.4605C22.9956 22.3908 22.9772 22.3225 22.9454 22.2603C22.9136 22.198 22.8691 22.1432 22.8147 22.0993L12.7007 11.9853L22.8147 1.87132C22.8868 1.80162 22.9362 1.71178 22.9565 1.61356C22.9767 1.51533 22.9668 1.4133 22.9281 1.32078C22.8894 1.22825 22.8237 1.14955 22.7396 1.09497C22.6555 1.04039 22.5568 1.01247 22.4566 1.01486C22.3264 1.01999 22.2034 1.07589 22.114 1.17058L12 11.2846L1.88602 1.17058C1.83988 1.12184 1.78438 1.08293 1.72283 1.05618C1.66129 1.02942 1.59497 1.01536 1.52787 1.01486V1.01486Z" fill="white"/>
</svg>
