<?xml version="1.0" encoding="utf-8"?>
<!-- Generator: Adobe Illustrator 22.1.0, SVG Export Plug-In . SVG Version: 6.00 Build 0)  -->
<svg version="1.1" id="Слой_1" xmlns="http://www.w3.org/2000/svg" xmlns:xlink="http://www.w3.org/1999/xlink" x="0px" y="0px"
	 width="950px" height="120px" viewBox="0 0 950 120" style="enable-background:new 0 0 950 120;" xml:space="preserve">
<style type="text/css">
	.st0{fill:#FFFFFF;filter:url(#Adobe_OpacityMaskFilter);}
	.st1{mask:url(#path-1-inside-1_1_);fill:none;stroke:#FFFFFF;stroke-width:2;}
</style>
<defs>
	<filter id="Adobe_OpacityMaskFilter" filterUnits="userSpaceOnUse" x="0" y="0" width="927.9" height="117.2">
		<feColorMatrix  type="matrix" values="1 0 0 0 0  0 1 0 0 0  0 0 1 0 0  0 0 0 1 0"/>
	</filter>
</defs>
<mask maskUnits="userSpaceOnUse" x="0" y="0" width="927.9" height="117.2" id="path-1-inside-1_1_">
	<path class="st0" d="M1,58.6c0-8.5,1.2-16.2,3.5-22.9S10.4,23.2,15,18.6c5.9-5.9,13.7-10,23.6-12.3c9.9-2.4,22.2-3.5,37-3.5h67.8
		v26.8H79.8c-9.7,0-17.4,0.5-23.3,1.4c-5.7,0.9-10.3,2.7-13.6,5.4c-2.7,2.2-4.6,5-5.9,8.6c-1.2,3.5-1.8,8.1-1.8,13.7
		c0,5.6,0.6,10.3,1.8,13.9c1.2,3.5,3.2,6.3,5.9,8.5c3.3,2.7,7.8,4.5,13.6,5.4c5.9,0.9,13.6,1.4,23.3,1.4h63.4v26.8H75.5
		c-14.8,0-27.1-1.2-37-3.5S20.9,104.5,15,98.6C10.4,94,6.9,88.3,4.5,81.5S1,67.1,1,58.6z M252.9,87.2c9.5,0,17.4-0.4,23.4-1.1
		c6.1-0.8,10.8-2.6,14.3-5.4c5-4,7.5-11.4,7.5-22.2s-2.5-18.2-7.5-22.2c-3.5-2.8-8.3-4.5-14.3-5.2c-6.1-0.8-13.9-1.2-23.4-1.2h-15.2
		c-9.5,0-17.4,0.4-23.4,1.2c-6.1,0.7-10.8,2.5-14.3,5.2c-5,4-7.5,11.4-7.5,22.2s2.5,18.2,7.5,22.2c3.5,2.8,8.3,4.6,14.3,5.4
		c6.1,0.7,13.9,1.1,23.4,1.1H252.9z M236.4,116.2c-7.3,0-14.2-0.3-20.6-0.8c-6.4-0.5-12.3-1.4-17.7-2.8c-5.3-1.3-10.2-3.1-14.6-5.2
		c-4.4-2.3-8.3-5-11.6-8.3c-4.5-4.4-8-9.9-10.3-16.5c-2.4-6.6-3.5-14.6-3.5-24s1.2-17.5,3.5-24c2.4-6.6,5.8-12.1,10.3-16.5
		c6.6-6.6,15.3-11,26.2-13.4C208.9,2.2,221.7,1,236.4,1h17.7c7.3,0,14.1,0.3,20.5,0.9c6.5,0.5,12.4,1.4,17.7,2.8
		c5.4,1.2,10.4,3,14.8,5.2c4.4,2.2,8.3,4.9,11.6,8.2c4.5,4.4,8,9.9,10.3,16.5s3.5,14.6,3.5,24s-1.2,17.5-3.5,24s-5.8,12.1-10.3,16.5
		c-3.3,3.3-7.1,6.1-11.6,8.3c-4.4,2.2-9.3,3.9-14.8,5.2c-5.3,1.3-11.2,2.3-17.7,2.8c-6.4,0.5-13.2,0.8-20.5,0.8H236.4z M510.1,58.6
		c0,8.5-1.2,16.2-3.5,22.9c-2.4,6.8-5.9,12.5-10.5,17.1c-5.9,5.9-13.7,10-23.6,12.3c-9.9,2.4-22.2,3.5-37,3.5h-81.3V2.7h81.3
		c14.8,0,27.1,1.2,37,3.5c9.9,2.4,17.7,6.5,23.6,12.3c4.6,4.6,8.1,10.3,10.5,17.1C509,42.4,510.1,50.1,510.1,58.6z M387.4,29.5v58.2
		h43.9c9.7,0,17.4-0.5,23.1-1.4c5.9-0.9,10.4-2.7,13.7-5.4c2.7-2.2,4.6-5,5.9-8.5c1.2-3.6,1.8-8.2,1.8-13.9c0-5.6-0.6-10.2-1.8-13.7
		c-1.2-3.6-3.2-6.5-5.9-8.6c-3.3-2.7-7.9-4.5-13.7-5.4c-5.7-0.9-13.4-1.4-23.1-1.4H387.4z M566.1,114.5H533V2.7h33.1V114.5z
		 M625.4,2.7l94.9,72.1V2.7h32.2v111.8h-28.3L628.1,42v72.5H596V2.7H625.4z M774.3,58.6c0-8.5,1.2-16.2,3.5-22.9
		c2.4-6.8,5.9-12.5,10.5-17.1c5.9-5.9,13.7-10,23.6-12.3c9.9-2.4,22.2-3.5,37-3.5h75v26.8h-70.7c-9.7,0-17.4,0.5-23.3,1.4
		c-5.8,0.9-10.3,2.7-13.6,5.4c-2.7,2.2-4.6,5-5.9,8.6c-1.2,3.5-1.8,8.1-1.8,13.7c0,5.6,0.6,10.3,1.8,13.9c1.2,3.5,3.2,6.3,5.9,8.5
		c3.3,2.7,7.8,4.5,13.6,5.4c5.9,0.9,13.6,1.4,23.3,1.4h40.5V53.8h33.3v60.7h-78.1c-14.8,0-27.1-1.2-37-3.5
		c-9.9-2.4-17.7-6.5-23.6-12.3c-4.6-4.6-8.1-10.3-10.5-17.1C775.5,74.8,774.3,67.1,774.3,58.6z"/>
</mask>
<path class="st1" d="M1,58.6c0-8.5,1.2-16.2,3.5-22.9S10.4,23.2,15,18.6c5.9-5.9,13.7-10,23.6-12.3c9.9-2.4,22.2-3.5,37-3.5h67.8
	v26.8H79.8c-9.7,0-17.4,0.5-23.3,1.4c-5.7,0.9-10.3,2.7-13.6,5.4c-2.7,2.2-4.6,5-5.9,8.6c-1.2,3.5-1.8,8.1-1.8,13.7
	c0,5.6,0.6,10.3,1.8,13.9c1.2,3.5,3.2,6.3,5.9,8.5c3.3,2.7,7.8,4.5,13.6,5.4c5.9,0.9,13.6,1.4,23.3,1.4h63.4v26.8H75.5
	c-14.8,0-27.1-1.2-37-3.5S20.9,104.5,15,98.6C10.4,94,6.9,88.3,4.5,81.5S1,67.1,1,58.6z M252.9,87.2c9.5,0,17.4-0.4,23.4-1.1
	c6.1-0.8,10.8-2.6,14.3-5.4c5-4,7.5-11.4,7.5-22.2s-2.5-18.2-7.5-22.2c-3.5-2.8-8.3-4.5-14.3-5.2c-6.1-0.8-13.9-1.2-23.4-1.2h-15.2
	c-9.5,0-17.4,0.4-23.4,1.2c-6.1,0.7-10.8,2.5-14.3,5.2c-5,4-7.5,11.4-7.5,22.2s2.5,18.2,7.5,22.2c3.5,2.8,8.3,4.6,14.3,5.4
	c6.1,0.7,13.9,1.1,23.4,1.1H252.9z M236.4,116.2c-7.3,0-14.2-0.3-20.6-0.8c-6.4-0.5-12.3-1.4-17.7-2.8c-5.3-1.3-10.2-3.1-14.6-5.2
	c-4.4-2.3-8.3-5-11.6-8.3c-4.5-4.4-8-9.9-10.3-16.5c-2.4-6.6-3.5-14.6-3.5-24s1.2-17.5,3.5-24c2.4-6.6,5.8-12.1,10.3-16.5
	c6.6-6.6,15.3-11,26.2-13.4C208.9,2.2,221.7,1,236.4,1h17.7c7.3,0,14.1,0.3,20.5,0.9c6.5,0.5,12.4,1.4,17.7,2.8
	c5.4,1.2,10.4,3,14.8,5.2c4.4,2.2,8.3,4.9,11.6,8.2c4.5,4.4,8,9.9,10.3,16.5s3.5,14.6,3.5,24s-1.2,17.5-3.5,24s-5.8,12.1-10.3,16.5
	c-3.3,3.3-7.1,6.1-11.6,8.3c-4.4,2.2-9.3,3.9-14.8,5.2c-5.3,1.3-11.2,2.3-17.7,2.8c-6.4,0.5-13.2,0.8-20.5,0.8H236.4z M510.1,58.6
	c0,8.5-1.2,16.2-3.5,22.9c-2.4,6.8-5.9,12.5-10.5,17.1c-5.9,5.9-13.7,10-23.6,12.3c-9.9,2.4-22.2,3.5-37,3.5h-81.3V2.7h81.3
	c14.8,0,27.1,1.2,37,3.5c9.9,2.4,17.7,6.5,23.6,12.3c4.6,4.6,8.1,10.3,10.5,17.1C509,42.4,510.1,50.1,510.1,58.6z M387.4,29.5v58.2
	h43.9c9.7,0,17.4-0.5,23.1-1.4c5.9-0.9,10.4-2.7,13.7-5.4c2.7-2.2,4.6-5,5.9-8.5c1.2-3.6,1.8-8.2,1.8-13.9c0-5.6-0.6-10.2-1.8-13.7
	c-1.2-3.6-3.2-6.5-5.9-8.6c-3.3-2.7-7.9-4.5-13.7-5.4c-5.7-0.9-13.4-1.4-23.1-1.4H387.4z M566.1,114.5H533V2.7h33.1V114.5z
	 M625.4,2.7l94.9,72.1V2.7h32.2v111.8h-28.3L628.1,42v72.5H596V2.7H625.4z M774.3,58.6c0-8.5,1.2-16.2,3.5-22.9
	c2.4-6.8,5.9-12.5,10.5-17.1c5.9-5.9,13.7-10,23.6-12.3c9.9-2.4,22.2-3.5,37-3.5h75v26.8h-70.7c-9.7,0-17.4,0.5-23.3,1.4
	c-5.8,0.9-10.3,2.7-13.6,5.4c-2.7,2.2-4.6,5-5.9,8.6c-1.2,3.5-1.8,8.1-1.8,13.7c0,5.6,0.6,10.3,1.8,13.9c1.2,3.5,3.2,6.3,5.9,8.5
	c3.3,2.7,7.8,4.5,13.6,5.4c5.9,0.9,13.6,1.4,23.3,1.4h40.5V53.8h33.3v60.7h-78.1c-14.8,0-27.1-1.2-37-3.5
	c-9.9-2.4-17.7-6.5-23.6-12.3c-4.6-4.6-8.1-10.3-10.5-17.1C775.5,74.8,774.3,67.1,774.3,58.6z"/>
</svg>
