<svg width="531" height="81" viewBox="0 0 531 81" fill="none" xmlns="http://www.w3.org/2000/svg">
<path d="M1.58402 1.76758H6.03202V24.9996H1.58402V1.76758Z" fill="#181818"/>
<path d="M17.145 1.76758L40.665 20.1676V1.76758H44.889V24.9996H40.889L17.369 6.59958V24.9996H13.145V1.76758H17.145Z" fill="#181818"/>
<path d="M66.7423 24.9996H62.2943V5.12758H49.8143V1.76758H79.2223V5.12758H66.7423V24.9996Z" fill="#181818"/>
<path d="M110.961 24.9996H84.145V1.76758H110.833V5.12758H88.593V11.4956H103.729V14.7916H88.593V21.6396H110.961V24.9996Z" fill="#181818"/>
<path d="M120.843 17.9596V24.9996H116.395V1.76758H136.011C137.846 1.76758 139.424 1.95958 140.747 2.34358C142.091 2.70624 143.19 3.31424 144.043 4.16758C144.683 4.80758 145.174 5.59691 145.515 6.53558C145.878 7.47424 146.059 8.58358 146.059 9.86358C146.059 11.1436 145.878 12.2529 145.515 13.1916C145.174 14.1302 144.683 14.9196 144.043 15.5596C142.912 16.6902 141.291 17.4156 139.179 17.7356C139.67 18.0129 140.182 18.3542 140.715 18.7596C141.248 19.1649 141.899 19.7089 142.667 20.3916L147.787 24.9996H141.963L135.531 19.1756C135.232 18.9196 134.966 18.7169 134.731 18.5676C134.496 18.3969 134.262 18.2689 134.027 18.1836C133.792 18.0982 133.536 18.0449 133.259 18.0236C133.003 17.9809 132.694 17.9596 132.331 17.9596H120.843ZM135.595 14.5996C136.811 14.5996 137.803 14.5142 138.571 14.3436C139.339 14.1516 139.947 13.8422 140.395 13.4156C141.12 12.6902 141.483 11.5062 141.483 9.86358C141.483 8.22091 141.12 7.03691 140.395 6.31158C139.947 5.88491 139.339 5.58624 138.571 5.41558C137.803 5.22358 136.811 5.12758 135.595 5.12758H120.843V14.5996H135.595Z" fill="#181818"/>
<path d="M177.849 20.5196H158.233L155.257 24.9996H150.265L166.041 1.76758H170.009L185.881 24.9996H180.857L177.849 20.5196ZM160.505 17.1276H175.577L168.025 5.89558L160.505 17.1276Z" fill="#181818"/>
<path d="M215.249 21.6076V24.9996H203.281C201.51 24.9996 199.942 24.9569 198.577 24.8716C197.212 24.7862 195.996 24.6262 194.929 24.3916C193.862 24.1569 192.924 23.8476 192.113 23.4636C191.302 23.0796 190.566 22.5782 189.905 21.9596C188.86 20.9996 188.07 19.8156 187.537 18.4076C187.004 16.9996 186.737 15.3249 186.737 13.3836C186.737 11.4422 187.004 9.76758 187.537 8.35958C188.07 6.95158 188.86 5.76758 189.905 4.80758C190.566 4.21024 191.302 3.71958 192.113 3.33558C192.924 2.93024 193.862 2.61024 194.929 2.37558C195.996 2.14091 197.212 1.98091 198.577 1.89558C199.942 1.81024 201.51 1.76758 203.281 1.76758H215.249V5.15958H203.633C202.246 5.15958 200.998 5.19158 199.889 5.25558C198.801 5.29824 197.841 5.39424 197.009 5.54358C196.177 5.69291 195.452 5.90624 194.833 6.18358C194.214 6.46091 193.692 6.82358 193.265 7.27158C192.561 8.01824 192.081 8.92491 191.825 9.99158C191.569 11.0582 191.441 12.1889 191.441 13.3836C191.441 14.5782 191.569 15.7089 191.825 16.7756C192.081 17.8422 192.561 18.7489 193.265 19.4956C193.692 19.9436 194.214 20.3062 194.833 20.5836C195.452 20.8609 196.177 21.0742 197.009 21.2236C197.841 21.3729 198.801 21.4796 199.889 21.5436C200.998 21.5862 202.246 21.6076 203.633 21.6076H215.249Z" fill="#181818"/>
<path d="M236.024 24.9996H231.576V5.12758H219.096V1.76758H248.504V5.12758H236.024V24.9996Z" fill="#181818"/>
<path d="M253.49 1.76758H257.938V24.9996H253.49V1.76758Z" fill="#181818"/>
<path d="M279.707 20.8396L292.315 1.76758H297.211L281.627 24.9996H277.659L262.011 1.76758H267.067L279.707 20.8396Z" fill="#181818"/>
<path d="M328.024 24.9996H301.208V1.76758H327.896V5.12758H305.656V11.4956H320.792V14.7916H305.656V21.6396H328.024V24.9996Z" fill="#181818"/>
<path d="M369.517 21.6076V13.8956H373.837V24.9996H359.469C357.698 24.9996 356.13 24.9569 354.765 24.8716C353.399 24.7862 352.183 24.6262 351.117 24.3916C350.05 24.1569 349.111 23.8476 348.301 23.4636C347.49 23.0796 346.754 22.5782 346.093 21.9596C345.047 20.9996 344.258 19.8156 343.725 18.4076C343.191 16.9996 342.925 15.3249 342.925 13.3836C342.925 11.4422 343.191 9.76758 343.725 8.35958C344.258 6.95158 345.047 5.76758 346.093 4.80758C346.754 4.21024 347.49 3.71958 348.301 3.33558C349.111 2.93024 350.05 2.61024 351.117 2.37558C352.183 2.14091 353.399 1.98091 354.765 1.89558C356.13 1.81024 357.698 1.76758 359.469 1.76758H373.389V5.15958H359.821C358.434 5.15958 357.186 5.19158 356.077 5.25558C354.989 5.29824 354.029 5.39424 353.197 5.54358C352.365 5.69291 351.639 5.90624 351.021 6.18358C350.402 6.46091 349.879 6.82358 349.453 7.27158C348.749 8.01824 348.269 8.92491 348.013 9.99158C347.757 11.0582 347.629 12.1889 347.629 13.3836C347.629 14.5782 347.757 15.7089 348.013 16.7756C348.269 17.8422 348.749 18.7489 349.453 19.4956C349.879 19.9436 350.402 20.3062 351.021 20.5836C351.639 20.8609 352.365 21.0742 353.197 21.2236C354.029 21.3729 354.989 21.4796 356.077 21.5436C357.186 21.5862 358.434 21.6076 359.821 21.6076H369.517Z" fill="#181818"/>
<path d="M405.068 20.5196H385.452L382.476 24.9996H377.484L393.26 1.76758H397.228L413.1 24.9996H408.076L405.068 20.5196ZM387.724 17.1276H402.796L395.244 5.89558L387.724 17.1276Z" fill="#181818"/>
<path d="M454.966 24.9996H450.614V8.32758L438.198 23.9756H434.326L421.494 8.39158V24.9996H417.27V1.76758H421.014L436.342 20.4236L451.126 1.76758H454.966V24.9996Z" fill="#181818"/>
<path d="M488.836 24.9996H462.02V1.76758H488.708V5.12758H466.468V11.4956H481.604V14.7916H466.468V21.6396H488.836V24.9996Z" fill="#181818"/>
<path d="M493.837 24.9996V21.6716H510.893C512.002 21.6716 512.994 21.6502 513.869 21.6076C514.765 21.5436 515.512 21.4156 516.109 21.2236C516.706 21.0102 517.165 20.7009 517.485 20.2956C517.805 19.8902 517.965 19.3462 517.965 18.6636C517.965 18.0876 517.848 17.6289 517.613 17.2876C517.378 16.9249 517.037 16.6369 516.589 16.4236C516.141 16.2102 515.586 16.0502 514.925 15.9436C514.264 15.8156 513.506 15.7089 512.653 15.6236L501.357 14.4716C500.013 14.3436 498.797 14.1409 497.709 13.8636C496.642 13.5649 495.725 13.1702 494.957 12.6796C494.189 12.1676 493.602 11.5382 493.197 10.7916C492.792 10.0449 492.589 9.13824 492.589 8.07158C492.589 6.89824 492.834 5.90624 493.325 5.09558C493.837 4.28491 494.552 3.63424 495.469 3.14358C496.386 2.65291 497.485 2.30091 498.765 2.08758C500.045 1.87424 501.464 1.76758 503.021 1.76758H520.941V5.09558H503.373C502.157 5.09558 501.144 5.13824 500.333 5.22358C499.522 5.30891 498.872 5.46891 498.381 5.70358C497.89 5.91691 497.538 6.21558 497.325 6.59958C497.112 6.96224 497.005 7.42091 497.005 7.97558C497.005 8.55158 497.133 9.02091 497.389 9.38358C497.645 9.72491 498.008 10.0022 498.477 10.2156C498.946 10.4289 499.501 10.5889 500.141 10.6956C500.802 10.8022 501.528 10.8982 502.317 10.9836L513.709 12.1356C515.138 12.2849 516.397 12.5089 517.485 12.8076C518.573 13.0849 519.48 13.4796 520.205 13.9916C520.93 14.4822 521.474 15.1009 521.837 15.8476C522.2 16.5942 522.381 17.5009 522.381 18.5676C522.381 20.9356 521.474 22.5996 519.661 23.5596C517.848 24.5196 515.074 24.9996 511.341 24.9996H493.837Z" fill="#181818"/>
<path d="M1.52002 51.7676H27.696V55.1276H5.96802V61.4956H20.592V64.7916H5.96802V74.9996H1.52002V51.7676Z" fill="#181818"/>
<path d="M30.0495 63.3836C30.0495 61.5062 30.3162 59.8422 30.8495 58.3916C31.3829 56.9409 32.1615 55.7249 33.1855 54.7436C33.8469 54.1036 34.5829 53.5702 35.3935 53.1436C36.2255 52.7169 37.1855 52.3756 38.2735 52.1196C39.3615 51.8422 40.5989 51.6502 41.9855 51.5436C43.3935 51.4369 45.0042 51.3836 46.8175 51.3836H48.8655C50.6789 51.3836 52.2789 51.4369 53.6655 51.5436C55.0735 51.6502 56.3215 51.8422 57.4095 52.1196C58.4975 52.3756 59.4469 52.7169 60.2575 53.1436C61.0895 53.5702 61.8362 54.1036 62.4975 54.7436C63.5215 55.7249 64.3002 56.9409 64.8335 58.3916C65.3669 59.8422 65.6335 61.5062 65.6335 63.3836C65.6335 65.2609 65.3669 66.9249 64.8335 68.3756C64.3002 69.8262 63.5215 71.0422 62.4975 72.0236C61.8362 72.6636 61.0895 73.1969 60.2575 73.6236C59.4469 74.0502 58.4975 74.4022 57.4095 74.6796C56.3215 74.9356 55.0735 75.1169 53.6655 75.2236C52.2789 75.3302 50.6789 75.3836 48.8655 75.3836H46.8175C45.0042 75.3836 43.3935 75.3302 41.9855 75.2236C40.5989 75.1169 39.3615 74.9356 38.2735 74.6796C37.1855 74.4022 36.2255 74.0502 35.3935 73.6236C34.5829 73.1969 33.8469 72.6636 33.1855 72.0236C32.1615 71.0422 31.3829 69.8262 30.8495 68.3756C30.3162 66.9249 30.0495 65.2609 30.0495 63.3836ZM60.9295 63.3836C60.9295 62.1676 60.8015 61.0262 60.5455 59.9596C60.3109 58.8929 59.8309 57.9862 59.1055 57.2396C58.6575 56.7916 58.1242 56.4289 57.5055 56.1516C56.8869 55.8529 56.1509 55.6289 55.2975 55.4796C54.4442 55.3089 53.4629 55.1916 52.3535 55.1276C51.2655 55.0636 50.0282 55.0316 48.6415 55.0316H47.0415C45.6549 55.0316 44.4069 55.0636 43.2975 55.1276C42.2095 55.1916 41.2389 55.3089 40.3855 55.4796C39.5322 55.6289 38.7962 55.8529 38.1775 56.1516C37.5589 56.4289 37.0255 56.7916 36.5775 57.2396C35.8522 57.9862 35.3615 58.8929 35.1055 59.9596C34.8709 61.0262 34.7535 62.1676 34.7535 63.3836C34.7535 64.5996 34.8709 65.7409 35.1055 66.8076C35.3615 67.8742 35.8522 68.7809 36.5775 69.5276C37.0255 69.9756 37.5589 70.3489 38.1775 70.6476C38.7962 70.9249 39.5322 71.1489 40.3855 71.3196C41.2389 71.4689 42.2095 71.5756 43.2975 71.6396C44.4069 71.7036 45.6549 71.7356 47.0415 71.7356H48.6415C50.0282 71.7356 51.2655 71.7036 52.3535 71.6396C53.4629 71.5756 54.4442 71.4689 55.2975 71.3196C56.1509 71.1489 56.8869 70.9249 57.5055 70.6476C58.1242 70.3489 58.6575 69.9756 59.1055 69.5276C59.8309 68.7809 60.3109 67.8742 60.5455 66.8076C60.8015 65.7409 60.9295 64.5996 60.9295 63.3836Z" fill="#181818"/>
<path d="M75.718 67.9596V74.9996H71.27V51.7676H90.886C92.7207 51.7676 94.2994 51.9596 95.622 52.3436C96.966 52.7062 98.0647 53.3142 98.918 54.1676C99.558 54.8076 100.049 55.5969 100.39 56.5356C100.753 57.4742 100.934 58.5836 100.934 59.8636C100.934 61.1436 100.753 62.2529 100.39 63.1916C100.049 64.1302 99.558 64.9196 98.918 65.5596C97.7874 66.6902 96.166 67.4156 94.054 67.7356C94.5447 68.0129 95.0567 68.3542 95.59 68.7596C96.1234 69.1649 96.774 69.7089 97.542 70.3916L102.662 74.9996H96.838L90.406 69.1756C90.1074 68.9196 89.8407 68.7169 89.606 68.5676C89.3714 68.3969 89.1367 68.2689 88.902 68.1836C88.6674 68.0982 88.4114 68.0449 88.134 68.0236C87.878 67.9809 87.5687 67.9596 87.206 67.9596H75.718ZM90.47 64.5996C91.686 64.5996 92.678 64.5142 93.446 64.3436C94.214 64.1516 94.822 63.8422 95.27 63.4156C95.9954 62.6902 96.358 61.5062 96.358 59.8636C96.358 58.2209 95.9954 57.0369 95.27 56.3116C94.822 55.8849 94.214 55.5862 93.446 55.4156C92.678 55.2236 91.686 55.1276 90.47 55.1276H75.718V64.5996H90.47Z" fill="#181818"/>
<path d="M138.095 64.5996C139.311 64.5996 140.303 64.5142 141.071 64.3436C141.839 64.1516 142.447 63.8422 142.895 63.4156C143.62 62.6902 143.983 61.5062 143.983 59.8636C143.983 58.2209 143.62 57.0369 142.895 56.3116C142.447 55.8849 141.839 55.5862 141.071 55.4156C140.303 55.2236 139.311 55.1276 138.095 55.1276H123.343V64.5996H138.095ZM123.343 67.9596V74.9996H118.895V51.7676H138.511C140.346 51.7676 141.924 51.9596 143.247 52.3436C144.591 52.7062 145.69 53.3142 146.543 54.1676C147.183 54.8076 147.674 55.5969 148.015 56.5356C148.378 57.4742 148.559 58.5836 148.559 59.8636C148.559 61.1436 148.378 62.2529 148.015 63.1916C147.674 64.1302 147.183 64.9196 146.543 65.5596C145.69 66.4129 144.591 67.0316 143.247 67.4156C141.924 67.7782 140.346 67.9596 138.511 67.9596H123.343Z" fill="#181818"/>
<path d="M158.406 67.9596V74.9996H153.958V51.7676H173.574C175.408 51.7676 176.987 51.9596 178.31 52.3436C179.654 52.7062 180.752 53.3142 181.606 54.1676C182.246 54.8076 182.736 55.5969 183.078 56.5356C183.44 57.4742 183.622 58.5836 183.622 59.8636C183.622 61.1436 183.44 62.2529 183.078 63.1916C182.736 64.1302 182.246 64.9196 181.606 65.5596C180.475 66.6902 178.854 67.4156 176.742 67.7356C177.232 68.0129 177.744 68.3542 178.278 68.7596C178.811 69.1649 179.462 69.7089 180.23 70.3916L185.35 74.9996H179.526L173.094 69.1756C172.795 68.9196 172.528 68.7169 172.294 68.5676C172.059 68.3969 171.824 68.2689 171.59 68.1836C171.355 68.0982 171.099 68.0449 170.822 68.0236C170.566 67.9809 170.256 67.9596 169.894 67.9596H158.406ZM173.158 64.5996C174.374 64.5996 175.366 64.5142 176.134 64.3436C176.902 64.1516 177.51 63.8422 177.958 63.4156C178.683 62.6902 179.046 61.5062 179.046 59.8636C179.046 58.2209 178.683 57.0369 177.958 56.3116C177.51 55.8849 176.902 55.5862 176.134 55.4156C175.366 55.2236 174.374 55.1276 173.158 55.1276H158.406V64.5996H173.158Z" fill="#181818"/>
<path d="M188.331 63.3836C188.331 61.5062 188.597 59.8422 189.131 58.3916C189.664 56.9409 190.443 55.7249 191.467 54.7436C192.128 54.1036 192.864 53.5702 193.675 53.1436C194.507 52.7169 195.467 52.3756 196.555 52.1196C197.643 51.8422 198.88 51.6502 200.267 51.5436C201.675 51.4369 203.285 51.3836 205.099 51.3836H207.147C208.96 51.3836 210.56 51.4369 211.947 51.5436C213.355 51.6502 214.603 51.8422 215.691 52.1196C216.779 52.3756 217.728 52.7169 218.539 53.1436C219.371 53.5702 220.117 54.1036 220.779 54.7436C221.803 55.7249 222.581 56.9409 223.115 58.3916C223.648 59.8422 223.915 61.5062 223.915 63.3836C223.915 65.2609 223.648 66.9249 223.115 68.3756C222.581 69.8262 221.803 71.0422 220.779 72.0236C220.117 72.6636 219.371 73.1969 218.539 73.6236C217.728 74.0502 216.779 74.4022 215.691 74.6796C214.603 74.9356 213.355 75.1169 211.947 75.2236C210.56 75.3302 208.96 75.3836 207.147 75.3836H205.099C203.285 75.3836 201.675 75.3302 200.267 75.2236C198.88 75.1169 197.643 74.9356 196.555 74.6796C195.467 74.4022 194.507 74.0502 193.675 73.6236C192.864 73.1969 192.128 72.6636 191.467 72.0236C190.443 71.0422 189.664 69.8262 189.131 68.3756C188.597 66.9249 188.331 65.2609 188.331 63.3836ZM219.211 63.3836C219.211 62.1676 219.083 61.0262 218.827 59.9596C218.592 58.8929 218.112 57.9862 217.387 57.2396C216.939 56.7916 216.405 56.4289 215.787 56.1516C215.168 55.8529 214.432 55.6289 213.579 55.4796C212.725 55.3089 211.744 55.1916 210.635 55.1276C209.547 55.0636 208.309 55.0316 206.923 55.0316H205.323C203.936 55.0316 202.688 55.0636 201.579 55.1276C200.491 55.1916 199.52 55.3089 198.667 55.4796C197.813 55.6289 197.077 55.8529 196.459 56.1516C195.84 56.4289 195.307 56.7916 194.859 57.2396C194.133 57.9862 193.643 58.8929 193.387 59.9596C193.152 61.0262 193.035 62.1676 193.035 63.3836C193.035 64.5996 193.152 65.7409 193.387 66.8076C193.643 67.8742 194.133 68.7809 194.859 69.5276C195.307 69.9756 195.84 70.3489 196.459 70.6476C197.077 70.9249 197.813 71.1489 198.667 71.3196C199.52 71.4689 200.491 71.5756 201.579 71.6396C202.688 71.7036 203.936 71.7356 205.323 71.7356H206.923C208.309 71.7356 209.547 71.7036 210.635 71.6396C211.744 71.5756 212.725 71.4689 213.579 71.3196C214.432 71.1489 215.168 70.9249 215.787 70.6476C216.405 70.3489 216.939 69.9756 217.387 69.5276C218.112 68.7809 218.592 67.8742 218.827 66.8076C219.083 65.7409 219.211 64.5996 219.211 63.3836Z" fill="#181818"/>
<path d="M226.237 74.9996V71.6076H237.597C239.368 71.6076 240.84 71.4689 242.013 71.1916C243.208 70.9142 244.146 70.4556 244.829 69.8156C245.448 69.2396 245.885 68.5036 246.141 67.6076C246.418 66.6902 246.557 65.6022 246.557 64.3436V51.7676H251.005V64.9516C251.005 66.6369 250.802 68.0662 250.397 69.2396C249.992 70.4129 249.341 71.4156 248.445 72.2476C247.506 73.1436 246.248 73.8262 244.669 74.2956C243.112 74.7649 241.117 74.9996 238.685 74.9996H226.237Z" fill="#181818"/>
<path d="M284.524 74.9996H257.708V51.7676H284.396V55.1276H262.156V61.4956H277.292V64.7916H262.156V71.6396H284.524V74.9996Z" fill="#181818"/>
<path d="M316.093 71.6076V74.9996H304.125C302.354 74.9996 300.786 74.9569 299.421 74.8716C298.055 74.7862 296.839 74.6262 295.773 74.3916C294.706 74.1569 293.767 73.8476 292.957 73.4636C292.146 73.0796 291.41 72.5782 290.749 71.9596C289.703 70.9996 288.914 69.8156 288.381 68.4076C287.847 66.9996 287.581 65.3249 287.581 63.3836C287.581 61.4422 287.847 59.7676 288.381 58.3596C288.914 56.9516 289.703 55.7676 290.749 54.8076C291.41 54.2102 292.146 53.7196 292.957 53.3356C293.767 52.9302 294.706 52.6102 295.773 52.3756C296.839 52.1409 298.055 51.9809 299.421 51.8956C300.786 51.8102 302.354 51.7676 304.125 51.7676H316.093V55.1596H304.477C303.09 55.1596 301.842 55.1916 300.733 55.2556C299.645 55.2982 298.685 55.3942 297.853 55.5436C297.021 55.6929 296.295 55.9062 295.677 56.1836C295.058 56.4609 294.535 56.8236 294.109 57.2716C293.405 58.0182 292.925 58.9249 292.669 59.9916C292.413 61.0582 292.285 62.1889 292.285 63.3836C292.285 64.5782 292.413 65.7089 292.669 66.7756C292.925 67.8422 293.405 68.7489 294.109 69.4956C294.535 69.9436 295.058 70.3062 295.677 70.5836C296.295 70.8609 297.021 71.0742 297.853 71.2236C298.685 71.3729 299.645 71.4796 300.733 71.5436C301.842 71.5862 303.09 71.6076 304.477 71.6076H316.093Z" fill="#181818"/>
<path d="M336.867 74.9996H332.419V55.1276H319.939V51.7676H349.347V55.1276H336.867V74.9996Z" fill="#181818"/>
<path d="M351.581 63.3836C351.581 61.5062 351.847 59.8422 352.381 58.3916C352.914 56.9409 353.693 55.7249 354.717 54.7436C355.378 54.1036 356.114 53.5702 356.925 53.1436C357.757 52.7169 358.717 52.3756 359.805 52.1196C360.893 51.8422 362.13 51.6502 363.517 51.5436C364.925 51.4369 366.535 51.3836 368.349 51.3836H370.397C372.21 51.3836 373.81 51.4369 375.197 51.5436C376.605 51.6502 377.853 51.8422 378.941 52.1196C380.029 52.3756 380.978 52.7169 381.789 53.1436C382.621 53.5702 383.367 54.1036 384.029 54.7436C385.053 55.7249 385.831 56.9409 386.365 58.3916C386.898 59.8422 387.165 61.5062 387.165 63.3836C387.165 65.2609 386.898 66.9249 386.365 68.3756C385.831 69.8262 385.053 71.0422 384.029 72.0236C383.367 72.6636 382.621 73.1969 381.789 73.6236C380.978 74.0502 380.029 74.4022 378.941 74.6796C377.853 74.9356 376.605 75.1169 375.197 75.2236C373.81 75.3302 372.21 75.3836 370.397 75.3836H368.349C366.535 75.3836 364.925 75.3302 363.517 75.2236C362.13 75.1169 360.893 74.9356 359.805 74.6796C358.717 74.4022 357.757 74.0502 356.925 73.6236C356.114 73.1969 355.378 72.6636 354.717 72.0236C353.693 71.0422 352.914 69.8262 352.381 68.3756C351.847 66.9249 351.581 65.2609 351.581 63.3836ZM382.461 63.3836C382.461 62.1676 382.333 61.0262 382.077 59.9596C381.842 58.8929 381.362 57.9862 380.637 57.2396C380.189 56.7916 379.655 56.4289 379.037 56.1516C378.418 55.8529 377.682 55.6289 376.829 55.4796C375.975 55.3089 374.994 55.1916 373.885 55.1276C372.797 55.0636 371.559 55.0316 370.173 55.0316H368.573C367.186 55.0316 365.938 55.0636 364.829 55.1276C363.741 55.1916 362.77 55.3089 361.917 55.4796C361.063 55.6289 360.327 55.8529 359.709 56.1516C359.09 56.4289 358.557 56.7916 358.109 57.2396C357.383 57.9862 356.893 58.8929 356.637 59.9596C356.402 61.0262 356.285 62.1676 356.285 63.3836C356.285 64.5996 356.402 65.7409 356.637 66.8076C356.893 67.8742 357.383 68.7809 358.109 69.5276C358.557 69.9756 359.09 70.3489 359.709 70.6476C360.327 70.9249 361.063 71.1489 361.917 71.3196C362.77 71.4689 363.741 71.5756 364.829 71.6396C365.938 71.7036 367.186 71.7356 368.573 71.7356H370.173C371.559 71.7356 372.797 71.7036 373.885 71.6396C374.994 71.5756 375.975 71.4689 376.829 71.3196C377.682 71.1489 378.418 70.9249 379.037 70.6476C379.655 70.3489 380.189 69.9756 380.637 69.5276C381.362 68.7809 381.842 67.8742 382.077 66.8076C382.333 65.7409 382.461 64.5996 382.461 63.3836Z" fill="#181818"/>
<path d="M397.249 67.9596V74.9996H392.801V51.7676H412.417C414.252 51.7676 415.831 51.9596 417.153 52.3436C418.497 52.7062 419.596 53.3142 420.449 54.1676C421.089 54.8076 421.58 55.5969 421.921 56.5356C422.284 57.4742 422.465 58.5836 422.465 59.8636C422.465 61.1436 422.284 62.2529 421.921 63.1916C421.58 64.1302 421.089 64.9196 420.449 65.5596C419.319 66.6902 417.697 67.4156 415.585 67.7356C416.076 68.0129 416.588 68.3542 417.121 68.7596C417.655 69.1649 418.305 69.7089 419.073 70.3916L424.193 74.9996H418.369L411.937 69.1756C411.639 68.9196 411.372 68.7169 411.137 68.5676C410.903 68.3969 410.668 68.2689 410.433 68.1836C410.199 68.0982 409.943 68.0449 409.665 68.0236C409.409 67.9809 409.1 67.9596 408.737 67.9596H397.249ZM412.001 64.5996C413.217 64.5996 414.209 64.5142 414.977 64.3436C415.745 64.1516 416.353 63.8422 416.801 63.4156C417.527 62.6902 417.889 61.5062 417.889 59.8636C417.889 58.2209 417.527 57.0369 416.801 56.3116C416.353 55.8849 415.745 55.5862 414.977 55.4156C414.209 55.2236 413.217 55.1276 412.001 55.1276H397.249V64.5996H412.001Z" fill="#181818"/>
</svg>
