<svg width="373" height="76" viewBox="0 0 373 76" fill="none" xmlns="http://www.w3.org/2000/svg">
<path d="M1.11182 25.0001V21.6081H12.4718C14.2425 21.6081 15.7145 21.4694 16.8878 21.1921C18.0825 20.9147 19.0212 20.4561 19.7038 19.8161C20.3225 19.2401 20.7598 18.5041 21.0158 17.6081C21.2932 16.6907 21.4318 15.6027 21.4318 14.3441V1.76807H25.8798V14.9521C25.8798 16.6374 25.6772 18.0667 25.2718 19.2401C24.8665 20.4134 24.2158 21.4161 23.3198 22.2481C22.3812 23.1441 21.1225 23.8267 19.5438 24.2961C17.9865 24.7654 15.9918 25.0001 13.5598 25.0001H1.11182Z" fill="#181818"/>
<path d="M55.3801 20.5201H35.7641L32.7881 25.0001H27.7961L43.5721 1.76807H47.5401L63.4121 25.0001H58.3881L55.3801 20.5201ZM38.0361 17.1281H53.1081L45.5561 5.89607L38.0361 17.1281Z" fill="#181818"/>
<path d="M90.8601 21.6081V13.8961H95.1801V25.0001H80.8121C79.0414 25.0001 77.4734 24.9574 76.1081 24.8721C74.7427 24.7867 73.5267 24.6267 72.4601 24.3921C71.3934 24.1574 70.4547 23.8481 69.6441 23.4641C68.8334 23.0801 68.0974 22.5787 67.4361 21.9601C66.3907 21.0001 65.6014 19.8161 65.0681 18.4081C64.5347 17.0001 64.2681 15.3254 64.2681 13.3841C64.2681 11.4427 64.5347 9.76807 65.0681 8.36007C65.6014 6.95207 66.3907 5.76807 67.4361 4.80807C68.0974 4.21073 68.8334 3.72007 69.6441 3.33607C70.4547 2.93073 71.3934 2.61073 72.4601 2.37607C73.5267 2.1414 74.7427 1.9814 76.1081 1.89606C77.4734 1.81073 79.0414 1.76807 80.8121 1.76807H94.7321V5.16007H81.1641C79.7774 5.16007 78.5294 5.19207 77.4201 5.25607C76.3321 5.29873 75.3721 5.39473 74.5401 5.54407C73.7081 5.6934 72.9827 5.90673 72.3641 6.18407C71.7454 6.4614 71.2227 6.82407 70.7961 7.27207C70.0921 8.01873 69.6121 8.9254 69.3561 9.99207C69.1001 11.0587 68.9721 12.1894 68.9721 13.3841C68.9721 14.5787 69.1001 15.7094 69.3561 16.7761C69.6121 17.8427 70.0921 18.7494 70.7961 19.4961C71.2227 19.9441 71.7454 20.3067 72.3641 20.5841C72.9827 20.8614 73.7081 21.0747 74.5401 21.2241C75.3721 21.3734 76.3321 21.4801 77.4201 21.5441C78.5294 21.5867 79.7774 21.6081 81.1641 21.6081H90.8601Z" fill="#181818"/>
<path d="M132.267 16.1681C132.267 17.6401 132.086 18.8454 131.723 19.7841C131.382 20.7227 130.849 21.5441 130.123 22.2481C128.971 23.3787 127.339 24.1894 125.227 24.6801C123.115 25.1494 120.491 25.3841 117.355 25.3841H116.107C112.971 25.3841 110.347 25.1494 108.235 24.6801C106.123 24.1894 104.491 23.3787 103.339 22.2481C102.614 21.5441 102.07 20.7227 101.707 19.7841C101.366 18.8454 101.195 17.6401 101.195 16.1681V1.76807H105.611V15.3361C105.611 16.4241 105.707 17.3201 105.899 18.0241C106.091 18.7281 106.465 19.3254 107.019 19.8161C107.745 20.4987 108.843 21.0107 110.315 21.3521C111.809 21.6721 113.825 21.8321 116.363 21.8321H117.131C119.67 21.8321 121.675 21.6721 123.147 21.3521C124.619 21.0107 125.729 20.4987 126.475 19.8161C127.03 19.3254 127.403 18.7281 127.595 18.0241C127.787 17.3201 127.883 16.4241 127.883 15.3361V1.76807H132.267V16.1681Z" fill="#181818"/>
<path d="M162.068 20.5201H142.452L139.476 25.0001H134.484L150.26 1.76807H154.228L170.1 25.0001H165.076L162.068 20.5201ZM144.724 17.1281H159.796L152.244 5.89607L144.724 17.1281Z" fill="#181818"/>
<path d="M178.718 17.9601V25.0001H174.27V1.76807H193.886C195.72 1.76807 197.299 1.96007 198.622 2.34407C199.966 2.70673 201.064 3.31473 201.918 4.16807C202.558 4.80807 203.048 5.5974 203.39 6.53607C203.752 7.47473 203.934 8.58407 203.934 9.86407C203.934 11.1441 203.752 12.2534 203.39 13.1921C203.048 14.1307 202.558 14.9201 201.918 15.5601C200.787 16.6907 199.166 17.4161 197.054 17.7361C197.544 18.0134 198.056 18.3547 198.59 18.7601C199.123 19.1654 199.774 19.7094 200.542 20.3921L205.662 25.0001H199.838L193.406 19.1761C193.107 18.9201 192.84 18.7174 192.606 18.5681C192.371 18.3974 192.136 18.2694 191.902 18.1841C191.667 18.0987 191.411 18.0454 191.134 18.0241C190.878 17.9814 190.568 17.9601 190.206 17.9601H178.718ZM193.47 14.6001C194.686 14.6001 195.678 14.5147 196.446 14.3441C197.214 14.1521 197.822 13.8427 198.27 13.4161C198.995 12.6907 199.358 11.5067 199.358 9.86407C199.358 8.2214 198.995 7.0374 198.27 6.31207C197.822 5.8854 197.214 5.58673 196.446 5.41607C195.678 5.22407 194.686 5.12807 193.47 5.12807H178.718V14.6001H193.47Z" fill="#181818"/>
<path d="M212.076 20.2961C212.758 20.2961 213.334 20.4881 213.804 20.8721C214.273 21.2561 214.508 21.8534 214.508 22.6641V22.8241C214.508 23.6561 214.273 24.2641 213.804 24.6481C213.334 25.0107 212.758 25.1921 212.076 25.1921H211.724C211.02 25.1921 210.433 25.0107 209.964 24.6481C209.516 24.2641 209.292 23.6561 209.292 22.8241V22.6641C209.292 21.8534 209.516 21.2561 209.964 20.8721C210.433 20.4881 211.02 20.2961 211.724 20.2961H212.076Z" fill="#181818"/>
<path d="M21.7198 64.6001C22.9358 64.6001 23.9278 64.5147 24.6958 64.3441C25.4638 64.1521 26.0718 63.8427 26.5198 63.4161C27.2452 62.6907 27.6078 61.5067 27.6078 59.8641C27.6078 58.2214 27.2452 57.0374 26.5198 56.3121C26.0718 55.8854 25.4638 55.5867 24.6958 55.4161C23.9278 55.2241 22.9358 55.1281 21.7198 55.1281H6.96782V64.6001H21.7198ZM6.96782 67.9601V75.0001H2.51982V51.7681H22.1358C23.9705 51.7681 25.5492 51.9601 26.8718 52.3441C28.2158 52.7067 29.3145 53.3147 30.1678 54.1681C30.8078 54.8081 31.2985 55.5974 31.6398 56.5361C32.0025 57.4747 32.1838 58.5841 32.1838 59.8641C32.1838 61.1441 32.0025 62.2534 31.6398 63.1921C31.2985 64.1307 30.8078 64.9201 30.1678 65.5601C29.3145 66.4134 28.2158 67.0321 26.8718 67.4161C25.5492 67.7787 23.9705 67.9601 22.1358 67.9601H6.96782Z" fill="#181818"/>
<path d="M42.0303 67.9601V75.0001H37.5823V51.7681H57.1983C59.033 51.7681 60.6117 51.9601 61.9343 52.3441C63.2783 52.7067 64.377 53.3147 65.2303 54.1681C65.8703 54.8081 66.361 55.5974 66.7023 56.5361C67.065 57.4747 67.2463 58.5841 67.2463 59.8641C67.2463 61.1441 67.065 62.2534 66.7023 63.1921C66.361 64.1307 65.8703 64.9201 65.2303 65.5601C64.0997 66.6907 62.4783 67.4161 60.3663 67.7361C60.857 68.0134 61.369 68.3547 61.9023 68.7601C62.4356 69.1654 63.0863 69.7094 63.8543 70.3921L68.9743 75.0001H63.1503L56.7183 69.1761C56.4196 68.9201 56.153 68.7174 55.9183 68.5681C55.6836 68.3974 55.449 68.2694 55.2143 68.1841C54.9797 68.0987 54.7236 68.0454 54.4463 68.0241C54.1903 67.9814 53.881 67.9601 53.5183 67.9601H42.0303ZM56.7823 64.6001C57.9983 64.6001 58.9903 64.5147 59.7583 64.3441C60.5263 64.1521 61.1343 63.8427 61.5823 63.4161C62.3077 62.6907 62.6703 61.5067 62.6703 59.8641C62.6703 58.2214 62.3077 57.0374 61.5823 56.3121C61.1343 55.8854 60.5263 55.5867 59.7583 55.4161C58.9903 55.2241 57.9983 55.1281 56.7823 55.1281H42.0303V64.6001H56.7823Z" fill="#181818"/>
<path d="M71.9556 63.3841C71.9556 61.5067 72.2222 59.8427 72.7556 58.3921C73.2889 56.9414 74.0676 55.7254 75.0916 54.7441C75.7529 54.1041 76.4889 53.5707 77.2996 53.1441C78.1316 52.7174 79.0916 52.3761 80.1796 52.1201C81.2676 51.8427 82.5049 51.6507 83.8916 51.5441C85.2996 51.4374 86.9102 51.3841 88.7236 51.3841H90.7716C92.5849 51.3841 94.1849 51.4374 95.5716 51.5441C96.9796 51.6507 98.2276 51.8427 99.3156 52.1201C100.404 52.3761 101.353 52.7174 102.164 53.1441C102.996 53.5707 103.742 54.1041 104.404 54.7441C105.428 55.7254 106.206 56.9414 106.74 58.3921C107.273 59.8427 107.54 61.5067 107.54 63.3841C107.54 65.2614 107.273 66.9254 106.74 68.3761C106.206 69.8267 105.428 71.0427 104.404 72.0241C103.742 72.6641 102.996 73.1974 102.164 73.6241C101.353 74.0507 100.404 74.4027 99.3156 74.6801C98.2276 74.9361 96.9796 75.1174 95.5716 75.2241C94.1849 75.3307 92.5849 75.3841 90.7716 75.3841H88.7236C86.9102 75.3841 85.2996 75.3307 83.8916 75.2241C82.5049 75.1174 81.2676 74.9361 80.1796 74.6801C79.0916 74.4027 78.1316 74.0507 77.2996 73.6241C76.4889 73.1974 75.7529 72.6641 75.0916 72.0241C74.0676 71.0427 73.2889 69.8267 72.7556 68.3761C72.2222 66.9254 71.9556 65.2614 71.9556 63.3841ZM102.836 63.3841C102.836 62.1681 102.708 61.0267 102.452 59.9601C102.217 58.8934 101.737 57.9867 101.012 57.2401C100.564 56.7921 100.03 56.4294 99.4116 56.1521C98.7929 55.8534 98.0569 55.6294 97.2036 55.4801C96.3502 55.3094 95.3689 55.1921 94.2596 55.1281C93.1716 55.0641 91.9342 55.0321 90.5476 55.0321H88.9476C87.5609 55.0321 86.3129 55.0641 85.2036 55.1281C84.1156 55.1921 83.1449 55.3094 82.2916 55.4801C81.4382 55.6294 80.7022 55.8534 80.0836 56.1521C79.4649 56.4294 78.9316 56.7921 78.4836 57.2401C77.7582 57.9867 77.2676 58.8934 77.0116 59.9601C76.7769 61.0267 76.6596 62.1681 76.6596 63.3841C76.6596 64.6001 76.7769 65.7414 77.0116 66.8081C77.2676 67.8747 77.7582 68.7814 78.4836 69.5281C78.9316 69.9761 79.4649 70.3494 80.0836 70.6481C80.7022 70.9254 81.4382 71.1494 82.2916 71.3201C83.1449 71.4694 84.1156 71.5761 85.2036 71.6401C86.3129 71.7041 87.5609 71.7361 88.9476 71.7361H90.5476C91.9342 71.7361 93.1716 71.7041 94.2596 71.6401C95.3689 71.5761 96.3502 71.4694 97.2036 71.3201C98.0569 71.1494 98.7929 70.9254 99.4116 70.6481C100.03 70.3494 100.564 69.9761 101.012 69.5281C101.737 68.7814 102.217 67.8747 102.452 66.8081C102.708 65.7414 102.836 64.6001 102.836 63.3841Z" fill="#181818"/>
<path d="M150.872 75.0001H146.52V58.3281L134.104 73.9761H130.232L117.4 58.3921V75.0001H113.176V51.7681H116.92L132.248 70.4241L147.032 51.7681H150.872V75.0001Z" fill="#181818"/>
<path d="M156.518 63.3841C156.518 61.5067 156.785 59.8427 157.318 58.3921C157.851 56.9414 158.63 55.7254 159.654 54.7441C160.315 54.1041 161.051 53.5707 161.862 53.1441C162.694 52.7174 163.654 52.3761 164.742 52.1201C165.83 51.8427 167.067 51.6507 168.454 51.5441C169.862 51.4374 171.473 51.3841 173.286 51.3841H175.334C177.147 51.3841 178.747 51.4374 180.134 51.5441C181.542 51.6507 182.79 51.8427 183.878 52.1201C184.966 52.3761 185.915 52.7174 186.726 53.1441C187.558 53.5707 188.305 54.1041 188.966 54.7441C189.99 55.7254 190.769 56.9414 191.302 58.3921C191.835 59.8427 192.102 61.5067 192.102 63.3841C192.102 65.2614 191.835 66.9254 191.302 68.3761C190.769 69.8267 189.99 71.0427 188.966 72.0241C188.305 72.6641 187.558 73.1974 186.726 73.6241C185.915 74.0507 184.966 74.4027 183.878 74.6801C182.79 74.9361 181.542 75.1174 180.134 75.2241C178.747 75.3307 177.147 75.3841 175.334 75.3841H173.286C171.473 75.3841 169.862 75.3307 168.454 75.2241C167.067 75.1174 165.83 74.9361 164.742 74.6801C163.654 74.4027 162.694 74.0507 161.862 73.6241C161.051 73.1974 160.315 72.6641 159.654 72.0241C158.63 71.0427 157.851 69.8267 157.318 68.3761C156.785 66.9254 156.518 65.2614 156.518 63.3841ZM187.398 63.3841C187.398 62.1681 187.27 61.0267 187.014 59.9601C186.779 58.8934 186.299 57.9867 185.574 57.2401C185.126 56.7921 184.593 56.4294 183.974 56.1521C183.355 55.8534 182.619 55.6294 181.766 55.4801C180.913 55.3094 179.931 55.1921 178.822 55.1281C177.734 55.0641 176.497 55.0321 175.11 55.0321H173.51C172.123 55.0321 170.875 55.0641 169.766 55.1281C168.678 55.1921 167.707 55.3094 166.854 55.4801C166.001 55.6294 165.265 55.8534 164.646 56.1521C164.027 56.4294 163.494 56.7921 163.046 57.2401C162.321 57.9867 161.83 58.8934 161.574 59.9601C161.339 61.0267 161.222 62.1681 161.222 63.3841C161.222 64.6001 161.339 65.7414 161.574 66.8081C161.83 67.8747 162.321 68.7814 163.046 69.5281C163.494 69.9761 164.027 70.3494 164.646 70.6481C165.265 70.9254 166.001 71.1494 166.854 71.3201C167.707 71.4694 168.678 71.5761 169.766 71.6401C170.875 71.7041 172.123 71.7361 173.51 71.7361H175.11C176.497 71.7361 177.734 71.7041 178.822 71.6401C179.931 71.5761 180.913 71.4694 181.766 71.3201C182.619 71.1494 183.355 70.9254 183.974 70.6481C184.593 70.3494 185.126 69.9761 185.574 69.5281C186.299 68.7814 186.779 67.8747 187.014 66.8081C187.27 65.7414 187.398 64.6001 187.398 63.3841Z" fill="#181818"/>
<path d="M227.814 64.6001C229.03 64.6001 230.022 64.5147 230.79 64.3441C231.558 64.1521 232.166 63.8427 232.614 63.4161C233.339 62.6907 233.702 61.5067 233.702 59.8641C233.702 58.2214 233.339 57.0374 232.614 56.3121C232.166 55.8854 231.558 55.5867 230.79 55.4161C230.022 55.2241 229.03 55.1281 227.814 55.1281H213.062V64.6001H227.814ZM213.062 67.9601V75.0001H208.614V51.7681H228.23C230.064 51.7681 231.643 51.9601 232.966 52.3441C234.31 52.7067 235.408 53.3147 236.262 54.1681C236.902 54.8081 237.392 55.5974 237.734 56.5361C238.096 57.4747 238.278 58.5841 238.278 59.8641C238.278 61.1441 238.096 62.2534 237.734 63.1921C237.392 64.1307 236.902 64.9201 236.262 65.5601C235.408 66.4134 234.31 67.0321 232.966 67.4161C231.643 67.7787 230.064 67.9601 228.23 67.9601H213.062Z" fill="#181818"/>
<path d="M264.536 70.5201H244.92L241.944 75.0001H236.952L252.728 51.7681H256.696L272.568 75.0001H267.544L264.536 70.5201ZM247.192 67.1281H262.264L254.712 55.8961L247.192 67.1281Z" fill="#181818"/>
<path d="M300.016 71.6081V63.8961H304.336V75.0001H289.968C288.198 75.0001 286.63 74.9574 285.264 74.8721C283.899 74.7867 282.683 74.6267 281.616 74.3921C280.55 74.1574 279.611 73.8481 278.8 73.4641C277.99 73.0801 277.254 72.5787 276.592 71.9601C275.547 71.0001 274.758 69.8161 274.224 68.4081C273.691 67.0001 273.424 65.3254 273.424 63.3841C273.424 61.4427 273.691 59.7681 274.224 58.3601C274.758 56.9521 275.547 55.7681 276.592 54.8081C277.254 54.2107 277.99 53.7201 278.8 53.3361C279.611 52.9307 280.55 52.6107 281.616 52.3761C282.683 52.1414 283.899 51.9814 285.264 51.8961C286.63 51.8107 288.198 51.7681 289.968 51.7681H303.888V55.1601H290.32C288.934 55.1601 287.686 55.1921 286.576 55.2561C285.488 55.2987 284.528 55.3947 283.696 55.5441C282.864 55.6934 282.139 55.9067 281.52 56.1841C280.902 56.4614 280.379 56.8241 279.952 57.2721C279.248 58.0187 278.768 58.9254 278.512 59.9921C278.256 61.0587 278.128 62.1894 278.128 63.3841C278.128 64.5787 278.256 65.7094 278.512 66.7761C278.768 67.8427 279.248 68.7494 279.952 69.4961C280.379 69.9441 280.902 70.3067 281.52 70.5841C282.139 70.8614 282.864 71.0747 283.696 71.2241C284.528 71.3734 285.488 71.4801 286.576 71.5441C287.686 71.5867 288.934 71.6081 290.32 71.6081H300.016Z" fill="#181818"/>
<path d="M337.68 75.0001H310.864V51.7681H337.552V55.1281H315.312V61.4961H330.448V64.7921H315.312V71.6401H337.68V75.0001Z" fill="#181818"/>
<path d="M342.681 75.0001V71.6721H359.737C360.846 71.6721 361.838 71.6507 362.713 71.6081C363.609 71.5441 364.355 71.4161 364.953 71.2241C365.55 71.0107 366.009 70.7014 366.329 70.2961C366.649 69.8907 366.809 69.3467 366.809 68.6641C366.809 68.0881 366.691 67.6294 366.457 67.2881C366.222 66.9254 365.881 66.6374 365.433 66.4241C364.985 66.2107 364.43 66.0507 363.769 65.9441C363.107 65.8161 362.35 65.7094 361.497 65.6241L350.201 64.4721C348.857 64.3441 347.641 64.1414 346.553 63.8641C345.486 63.5654 344.569 63.1707 343.801 62.6801C343.033 62.1681 342.446 61.5387 342.041 60.7921C341.635 60.0454 341.433 59.1387 341.433 58.0721C341.433 56.8987 341.678 55.9067 342.169 55.0961C342.681 54.2854 343.395 53.6347 344.313 53.1441C345.23 52.6534 346.329 52.3014 347.609 52.0881C348.889 51.8747 350.307 51.7681 351.865 51.7681H369.785V55.0961H352.217C351.001 55.0961 349.987 55.1387 349.177 55.2241C348.366 55.3094 347.715 55.4694 347.225 55.7041C346.734 55.9174 346.382 56.2161 346.169 56.6001C345.955 56.9627 345.849 57.4214 345.849 57.9761C345.849 58.5521 345.977 59.0214 346.233 59.3841C346.489 59.7254 346.851 60.0027 347.321 60.2161C347.79 60.4294 348.345 60.5894 348.985 60.6961C349.646 60.8027 350.371 60.8987 351.161 60.9841L362.553 62.1361C363.982 62.2854 365.241 62.5094 366.329 62.8081C367.417 63.0854 368.323 63.4801 369.049 63.9921C369.774 64.4827 370.318 65.1014 370.681 65.8481C371.043 66.5947 371.225 67.5014 371.225 68.5681C371.225 70.9361 370.318 72.6001 368.505 73.5601C366.691 74.5201 363.918 75.0001 360.185 75.0001H342.681Z" fill="#181818"/>
</svg>
