<svg width="193" height="27" viewBox="0 0 193 27" fill="none" xmlns="http://www.w3.org/2000/svg">
<path d="M29.7639 22.9093V26.584H17.6902C15.9039 26.584 14.322 26.5378 12.9446 26.4453C11.5672 26.3529 10.3405 26.1796 9.26439 25.9253C8.1883 25.6711 7.24134 25.336 6.42351 24.92C5.60568 24.504 4.86317 23.9609 4.19599 23.2907C3.14142 22.2507 2.34512 20.968 1.80707 19.4427C1.26902 17.9173 1 16.1031 1 14C1 11.8969 1.26902 10.0827 1.80707 8.55733C2.34512 7.032 3.14142 5.74933 4.19599 4.70933C4.86317 4.06222 5.60568 3.53067 6.42351 3.11467C7.24134 2.67556 8.1883 2.32889 9.26439 2.07467C10.3405 1.82044 11.5672 1.64711 12.9446 1.55467C14.322 1.46222 15.9039 1.416 17.6902 1.416H29.7639V5.09067H18.0453C16.6464 5.09067 15.3874 5.12533 14.2682 5.19467C13.1706 5.24089 12.2021 5.34489 11.3628 5.50667C10.5234 5.66844 9.79167 5.89956 9.16754 6.2C8.54341 6.50044 8.01612 6.89333 7.58569 7.37867C6.87546 8.18755 6.39122 9.16978 6.13296 10.3253C5.8747 11.4809 5.74557 12.7058 5.74557 14C5.74557 15.2942 5.8747 16.5191 6.13296 17.6747C6.39122 18.8302 6.87546 19.8124 7.58569 20.6213C8.01612 21.1067 8.54341 21.4996 9.16754 21.8C9.79167 22.1004 10.5234 22.3316 11.3628 22.4933C12.2021 22.6551 13.1706 22.7707 14.2682 22.84C15.3874 22.8862 16.6464 22.9093 18.0453 22.9093H29.7639Z" fill="white"/>
<path d="M32.7468 14C32.7468 11.9662 33.0158 10.1636 33.5539 8.592C34.0919 7.02044 34.8775 5.70311 35.9105 4.64C36.5777 3.94667 37.3202 3.36889 38.138 2.90667C38.9774 2.44445 39.9459 2.07467 41.0435 1.79733C42.1411 1.49689 43.3894 1.28889 44.7883 1.17333C46.2087 1.05778 47.8336 1 49.663 1H51.7291C53.5584 1 55.1726 1.05778 56.5715 1.17333C57.992 1.28889 59.251 1.49689 60.3486 1.79733C61.4462 2.07467 62.4039 2.44445 63.2218 2.90667C64.0611 3.36889 64.8144 3.94667 65.4816 4.64C66.5146 5.70311 67.3001 7.02044 67.8382 8.592C68.3762 10.1636 68.6453 11.9662 68.6453 14C68.6453 16.0338 68.3762 17.8364 67.8382 19.408C67.3001 20.9796 66.5146 22.2969 65.4816 23.36C64.8144 24.0533 64.0611 24.6311 63.2218 25.0933C62.4039 25.5556 61.4462 25.9369 60.3486 26.2373C59.251 26.5147 57.992 26.7111 56.5715 26.8267C55.1726 26.9422 53.5584 27 51.7291 27H49.663C47.8336 27 46.2087 26.9422 44.7883 26.8267C43.3894 26.7111 42.1411 26.5147 41.0435 26.2373C39.9459 25.9369 38.9774 25.5556 38.138 25.0933C37.3202 24.6311 36.5777 24.0533 35.9105 23.36C34.8775 22.2969 34.0919 20.9796 33.5539 19.408C33.0158 17.8364 32.7468 16.0338 32.7468 14ZM63.8997 14C63.8997 12.6827 63.7706 11.4462 63.5123 10.2907C63.2756 9.13511 62.7913 8.15289 62.0596 7.344C61.6076 6.85867 61.0696 6.46578 60.4454 6.16533C59.8213 5.84178 59.0788 5.59911 58.2179 5.43733C57.3571 5.25244 56.3671 5.12533 55.2479 5.056C54.1503 4.98667 52.902 4.952 51.5031 4.952H49.889C48.4901 4.952 47.231 4.98667 46.1119 5.056C45.0143 5.12533 44.035 5.25244 43.1742 5.43733C42.3133 5.59911 41.5708 5.84178 40.9466 6.16533C40.3225 6.46578 39.7845 6.85867 39.3325 7.344C38.6008 8.15289 38.1058 9.13511 37.8475 10.2907C37.6108 11.4462 37.4924 12.6827 37.4924 14C37.4924 15.3173 37.6108 16.5538 37.8475 17.7093C38.1058 18.8649 38.6008 19.8471 39.3325 20.656C39.7845 21.1413 40.3225 21.5458 40.9466 21.8693C41.5708 22.1698 42.3133 22.4124 43.1742 22.5973C44.035 22.7591 45.0143 22.8747 46.1119 22.944C47.231 23.0133 48.4901 23.048 49.889 23.048H51.5031C52.902 23.048 54.1503 23.0133 55.2479 22.944C56.3671 22.8747 57.3571 22.7591 58.2179 22.5973C59.0788 22.4124 59.8213 22.1698 60.4454 21.8693C61.0696 21.5458 61.6076 21.1413 62.0596 20.656C62.7913 19.8471 63.2756 18.8649 63.5123 17.7093C63.7706 16.5538 63.8997 15.3173 63.8997 14Z" fill="white"/>
<path d="M74.3316 1.416H90.021C91.8073 1.416 93.3892 1.46222 94.7666 1.55467C96.144 1.64711 97.3707 1.82044 98.4468 2.07467C99.5229 2.32889 100.47 2.67556 101.288 3.11467C102.106 3.53067 102.848 4.06222 103.515 4.70933C104.57 5.74933 105.366 7.032 105.904 8.55733C106.442 10.0827 106.711 11.8969 106.711 14C106.711 16.1031 106.442 17.9173 105.904 19.4427C105.366 20.968 104.57 22.2507 103.515 23.2907C102.848 23.9609 102.106 24.504 101.288 24.92C100.47 25.336 99.5229 25.6711 98.4468 25.9253C97.3707 26.1796 96.144 26.3529 94.7666 26.4453C93.3892 26.5378 91.8073 26.584 90.021 26.584H74.3316V1.416ZM78.8189 5.056V22.944H89.6659C91.0648 22.944 92.3131 22.9209 93.4107 22.8747C94.5298 22.8053 95.5091 22.6898 96.3484 22.528C97.1878 22.3431 97.9195 22.1004 98.5436 21.8C99.1678 21.4996 99.6951 21.1067 100.125 20.6213C100.836 19.8124 101.32 18.8302 101.578 17.6747C101.836 16.5191 101.966 15.2942 101.966 14C101.966 12.7058 101.836 11.4809 101.578 10.3253C101.32 9.16978 100.836 8.18755 100.125 7.37867C99.6951 6.89333 99.1678 6.50044 98.5436 6.2C97.9195 5.89956 97.1878 5.66844 96.3484 5.50667C95.5091 5.32178 94.5298 5.20622 93.4107 5.16C92.3131 5.09067 91.0648 5.056 89.6659 5.056H78.8189Z" fill="white"/>
<path d="M112.448 1.416H116.935V26.584H112.448V1.416Z" fill="white"/>
<path d="M128.147 1.416L151.875 21.3493V1.416H156.136V26.584H152.101L128.373 6.65067V26.584H124.111V1.416H128.147Z" fill="white"/>
<path d="M188.642 22.9093V14.5547H193V26.584H178.505C176.719 26.584 175.137 26.5378 173.759 26.4453C172.382 26.3529 171.155 26.1796 170.079 25.9253C169.003 25.6711 168.056 25.336 167.238 24.92C166.421 24.504 165.678 23.9609 165.011 23.2907C163.956 22.2507 163.16 20.968 162.622 19.4427C162.084 17.9173 161.815 16.1031 161.815 14C161.815 11.8969 162.084 10.0827 162.622 8.55733C163.16 7.032 163.956 5.74933 165.011 4.70933C165.678 4.06222 166.421 3.53067 167.238 3.11467C168.056 2.67556 169.003 2.32889 170.079 2.07467C171.155 1.82044 172.382 1.64711 173.759 1.55467C175.137 1.46222 176.719 1.416 178.505 1.416H192.548V5.09067H178.86C177.461 5.09067 176.202 5.12533 175.083 5.19467C173.985 5.24089 173.017 5.34489 172.178 5.50667C171.338 5.66844 170.607 5.89956 169.982 6.2C169.358 6.50044 168.831 6.89333 168.401 7.37867C167.69 8.18755 167.206 9.16978 166.948 10.3253C166.69 11.4809 166.56 12.7058 166.56 14C166.56 15.2942 166.69 16.5191 166.948 17.6747C167.206 18.8302 167.69 19.8124 168.401 20.6213C168.831 21.1067 169.358 21.4996 169.982 21.8C170.607 22.1004 171.338 22.3316 172.178 22.4933C173.017 22.6551 173.985 22.7707 175.083 22.84C176.202 22.8862 177.461 22.9093 178.86 22.9093H188.642Z" fill="white"/>
</svg>
