<svg width="142" height="28" viewBox="0 0 142 28" fill="none" xmlns="http://www.w3.org/2000/svg">
<path d="M32.4924 17.2273C32.4924 18.7955 32.3086 20.0795 31.941 21.0795C31.5951 22.0795 31.0545 22.9545 30.3194 23.7045C29.1518 24.9091 27.4977 25.7727 25.3572 26.2955C23.2166 26.7955 20.5571 27.0455 17.3786 27.0455H16.1138C12.9353 27.0455 10.2758 26.7955 8.13525 26.2955C5.99468 25.7727 4.34059 24.9091 3.17301 23.7045C2.43786 22.9545 1.8865 22.0795 1.51893 21.0795C1.17298 20.0795 1 18.7955 1 17.2273V1.88636H5.47575V16.3409C5.47575 17.5 5.57305 18.4545 5.76765 19.2045C5.96224 19.9545 6.34063 20.5909 6.9028 21.1136C7.63795 21.8409 8.75148 22.3864 10.2434 22.75C11.7569 23.0909 13.8002 23.2614 16.3732 23.2614H17.1516C19.7246 23.2614 21.7571 23.0909 23.249 22.75C24.7409 22.3864 25.8653 21.8409 26.622 21.1136C27.1842 20.5909 27.5626 19.9545 27.7572 19.2045C27.9518 18.4545 28.0491 17.5 28.0491 16.3409V1.88636H32.4924V17.2273Z" fill="white"/>
<path d="M53.6445 11.1591L63.796 1.88636H69.4718L56.5959 13.5795L71.061 26.6364H65.1582L53.6121 16.1364L42.1633 26.6364H36.3902L50.6607 13.7159L37.5578 1.88636H43.493L53.6445 11.1591Z" fill="white"/>
<path d="M77.9723 28H73.7236L90.1995 1H94.4482L77.9723 28Z" fill="white"/>
<path d="M130.805 17.2273C130.805 18.7955 130.621 20.0795 130.253 21.0795C129.907 22.0795 129.367 22.9545 128.632 23.7045C127.464 24.9091 125.81 25.7727 123.67 26.2955C121.529 26.7955 118.869 27.0455 115.691 27.0455H114.426C111.248 27.0455 108.588 26.7955 106.448 26.2955C104.307 25.7727 102.653 24.9091 101.485 23.7045C100.75 22.9545 100.199 22.0795 99.8313 21.0795C99.4854 20.0795 99.3124 18.7955 99.3124 17.2273V1.88636H103.788V16.3409C103.788 17.5 103.885 18.4545 104.08 19.2045C104.275 19.9545 104.653 20.5909 105.215 21.1136C105.95 21.8409 107.064 22.3864 108.556 22.75C110.069 23.0909 112.113 23.2614 114.686 23.2614H115.464C118.037 23.2614 120.069 23.0909 121.561 22.75C123.053 22.3864 124.178 21.8409 124.934 21.1136C125.497 20.5909 125.875 19.9545 126.07 19.2045C126.264 18.4545 126.361 17.5 126.361 16.3409V1.88636H130.805V17.2273Z" fill="white"/>
<path d="M137.492 1.88636H142V26.6364H137.492V1.88636Z" fill="white"/>
</svg>
