<svg width="260" height="26" viewBox="0 0 260 26" fill="none" xmlns="http://www.w3.org/2000/svg">
<path d="M26.7038 20.608V12.896H31.0238V24H16.6558C14.8852 24 13.3171 23.9573 11.9518 23.872C10.5865 23.7867 9.37048 23.6267 8.30382 23.392C7.23715 23.1573 6.29848 22.848 5.48782 22.464C4.67715 22.08 3.94115 21.5787 3.27982 20.96C2.23448 20 1.44515 18.816 0.911817 17.408C0.378483 16 0.111816 14.3253 0.111816 12.384C0.111816 10.4427 0.378483 8.768 0.911817 7.36C1.44515 5.952 2.23448 4.768 3.27982 3.808C3.94115 3.21067 4.67715 2.72 5.48782 2.336C6.29848 1.93067 7.23715 1.61067 8.30382 1.37601C9.37048 1.14134 10.5865 0.981337 11.9518 0.896004C13.3171 0.810671 14.8852 0.768005 16.6558 0.768005H30.5758V4.16001H17.0078C15.6212 4.16001 14.3732 4.19201 13.2638 4.256C12.1758 4.29867 11.2158 4.39467 10.3838 4.544C9.55182 4.69334 8.82648 4.90667 8.20782 5.18401C7.58915 5.46134 7.06648 5.824 6.63982 6.27201C5.93582 7.01867 5.45582 7.92534 5.19982 8.99201C4.94382 10.0587 4.81582 11.1893 4.81582 12.384C4.81582 13.5787 4.94382 14.7093 5.19982 15.776C5.45582 16.8427 5.93582 17.7493 6.63982 18.496C7.06648 18.944 7.58915 19.3067 8.20782 19.584C8.82648 19.8613 9.55182 20.0747 10.3838 20.224C11.2158 20.3733 12.1758 20.48 13.2638 20.544C14.3732 20.5867 15.6212 20.608 17.0078 20.608H26.7038Z" fill="white"/>
<path d="M41.9991 16.96V24H37.5511V0.768005H57.1671C59.0017 0.768005 60.5804 0.960005 61.9031 1.34401C63.2471 1.70667 64.3457 2.31467 65.1991 3.168C65.8391 3.808 66.3297 4.59734 66.6711 5.53601C67.0337 6.47467 67.2151 7.584 67.2151 8.86401C67.2151 10.144 67.0337 11.2533 66.6711 12.192C66.3297 13.1307 65.8391 13.92 65.1991 14.56C64.0684 15.6907 62.4471 16.416 60.3351 16.736C60.8257 17.0133 61.3377 17.3547 61.8711 17.76C62.4044 18.1653 63.0551 18.7093 63.8231 19.392L68.9431 24H63.1191L56.6871 18.176C56.3884 17.92 56.1217 17.7173 55.8871 17.568C55.6524 17.3973 55.4177 17.2693 55.1831 17.184C54.9484 17.0987 54.6924 17.0453 54.4151 17.024C54.1591 16.9813 53.8497 16.96 53.4871 16.96H41.9991ZM56.7511 13.6C57.9671 13.6 58.9591 13.5147 59.7271 13.344C60.4951 13.152 61.1031 12.8427 61.5511 12.416C62.2764 11.6907 62.6391 10.5067 62.6391 8.86401C62.6391 7.22134 62.2764 6.03734 61.5511 5.312C61.1031 4.88534 60.4951 4.58667 59.7271 4.416C58.9591 4.224 57.9671 4.128 56.7511 4.128H41.9991V13.6H56.7511Z" fill="white"/>
<path d="M99.0051 19.52H79.3891L76.4131 24H71.4211L87.1971 0.768005H91.1651L107.037 24H102.013L99.0051 19.52ZM81.6611 16.128H96.7331L89.1811 4.89601L81.6611 16.128Z" fill="white"/>
<path d="M130.407 13.6C131.623 13.6 132.615 13.5147 133.383 13.344C134.151 13.152 134.759 12.8427 135.207 12.416C135.933 11.6907 136.295 10.5067 136.295 8.86401C136.295 7.22134 135.933 6.03734 135.207 5.312C134.759 4.88534 134.151 4.58667 133.383 4.416C132.615 4.224 131.623 4.128 130.407 4.128H115.655V13.6H130.407ZM115.655 16.96V24H111.207V0.768005H130.823C132.658 0.768005 134.237 0.960005 135.559 1.34401C136.903 1.70667 138.002 2.31467 138.855 3.168C139.495 3.808 139.986 4.59734 140.327 5.53601C140.69 6.47467 140.871 7.584 140.871 8.86401C140.871 10.144 140.69 11.2533 140.327 12.192C139.986 13.1307 139.495 13.92 138.855 14.56C138.002 15.4133 136.903 16.032 135.559 16.416C134.237 16.7787 132.658 16.96 130.823 16.96H115.655Z" fill="white"/>
<path d="M177.246 24H172.798V13.568H150.718V24H146.27V0.768005H150.718V10.112H172.798V0.768005H177.246V24Z" fill="white"/>
<path d="M184.365 0.768005H188.813V24H184.365V0.768005Z" fill="white"/>
<path d="M223.03 20.608V24H211.062C209.291 24 207.723 23.9573 206.358 23.872C204.993 23.7867 203.777 23.6267 202.71 23.392C201.643 23.1573 200.705 22.848 199.894 22.464C199.083 22.08 198.347 21.5787 197.686 20.96C196.641 20 195.851 18.816 195.318 17.408C194.785 16 194.518 14.3253 194.518 12.384C194.518 10.4427 194.785 8.768 195.318 7.36C195.851 5.952 196.641 4.768 197.686 3.808C198.347 3.21067 199.083 2.72 199.894 2.336C200.705 1.93067 201.643 1.61067 202.71 1.37601C203.777 1.14134 204.993 0.981337 206.358 0.896004C207.723 0.810671 209.291 0.768005 211.062 0.768005H223.03V4.16001H211.414C210.027 4.16001 208.779 4.19201 207.67 4.256C206.582 4.29867 205.622 4.39467 204.79 4.544C203.958 4.69334 203.233 4.90667 202.614 5.18401C201.995 5.46134 201.473 5.824 201.046 6.27201C200.342 7.01867 199.862 7.92534 199.606 8.99201C199.35 10.0587 199.222 11.1893 199.222 12.384C199.222 13.5787 199.35 14.7093 199.606 15.776C199.862 16.8427 200.342 17.7493 201.046 18.496C201.473 18.944 201.995 19.3067 202.614 19.584C203.233 19.8613 203.958 20.0747 204.79 20.224C205.622 20.3733 206.582 20.48 207.67 20.544C208.779 20.5867 210.027 20.608 211.414 20.608H223.03Z" fill="white"/>
<path d="M228.868 24V20.672H245.924C247.033 20.672 248.025 20.6507 248.9 20.608C249.796 20.544 250.543 20.416 251.14 20.224C251.737 20.0107 252.196 19.7013 252.516 19.296C252.836 18.8907 252.996 18.3467 252.996 17.664C252.996 17.088 252.879 16.6293 252.644 16.288C252.409 15.9253 252.068 15.6373 251.62 15.424C251.172 15.2107 250.617 15.0507 249.956 14.944C249.295 14.816 248.537 14.7093 247.684 14.624L236.388 13.472C235.044 13.344 233.828 13.1413 232.74 12.864C231.673 12.5653 230.756 12.1707 229.988 11.68C229.22 11.168 228.633 10.5387 228.228 9.792C227.823 9.04534 227.62 8.13867 227.62 7.072C227.62 5.89867 227.865 4.90667 228.356 4.096C228.868 3.28534 229.583 2.63467 230.5 2.144C231.417 1.65334 232.516 1.30134 233.796 1.08801C235.076 0.874672 236.495 0.768005 238.052 0.768005H255.972V4.096H238.404C237.188 4.096 236.175 4.13867 235.364 4.224C234.553 4.30934 233.903 4.46934 233.412 4.704C232.921 4.91734 232.569 5.216 232.356 5.6C232.143 5.96267 232.036 6.42134 232.036 6.97601C232.036 7.55201 232.164 8.02134 232.42 8.384C232.676 8.72534 233.039 9.00267 233.508 9.21601C233.977 9.42934 234.532 9.58934 235.172 9.696C235.833 9.80267 236.559 9.89867 237.348 9.984L248.74 11.136C250.169 11.2853 251.428 11.5093 252.516 11.808C253.604 12.0853 254.511 12.48 255.236 12.992C255.961 13.4827 256.505 14.1013 256.868 14.848C257.231 15.5947 257.412 16.5013 257.412 17.568C257.412 19.936 256.505 21.6 254.692 22.56C252.879 23.52 250.105 24 246.372 24H228.868Z" fill="white"/>
</svg>
