<svg width="128" height="26" viewBox="0 0 128 26" fill="none" xmlns="http://www.w3.org/2000/svg">
<path d="M39.2914 26H34.8707V8.05923L22.2586 24.8981H18.3254L5.29072 8.1281V26H1V1H4.80314L20.3732 21.0758L35.3908 1H39.2914V26Z" fill="white"/>
<path d="M71.551 21.1791H51.6252L48.6022 26H43.5313L59.5565 1H63.5872L79.7099 26H74.6065L71.551 21.1791ZM53.9331 17.5289H69.2431L61.5718 5.44215L53.9331 17.5289Z" fill="white"/>
<path d="M84.011 1H88.5293V26H84.011V1Z" fill="white"/>
<path d="M99.8178 1L123.709 20.8003V1H128V26H123.937L100.045 6.19972V26H95.7546V1H99.8178Z" fill="white"/>
</svg>
