<svg width="33" height="33" viewBox="0 0 33 33" fill="none" xmlns="http://www.w3.org/2000/svg">
<ellipse cx="16.792" cy="16.7499" rx="16" ry="16" fill="white"/>
<path d="M9.32861 22.4459H10.6406V16.8139C11.4246 16.0299 11.9686 15.6139 12.7686 15.6139C13.7926 15.6139 14.2406 16.2379 14.2406 17.6939V22.4459H15.5526V17.5179C15.5526 15.5339 14.8166 14.4779 13.1846 14.4779C12.1126 14.4779 11.3286 15.0539 10.5926 15.7579L10.6406 14.1579V11.0539H9.32861V22.4459Z" fill="#181818"/>
<path d="M18.0317 22.4459H19.3437V16.8139C20.1277 16.0299 20.6717 15.6139 21.4717 15.6139C22.4957 15.6139 22.9437 16.2379 22.9437 17.6939V22.4459H24.2557V17.5179C24.2557 15.5339 23.5197 14.4779 21.8877 14.4779C20.8157 14.4779 20.0317 15.0539 19.2957 15.7579L19.3437 14.1579V11.0539H18.0317V22.4459Z" fill="#181818"/>
</svg>
