<svg width="24" height="25" viewBox="0 0 24 25" fill="none" xmlns="http://www.w3.org/2000/svg">
<path d="M23.3093 15.2989C23.4847 14.5171 23.5724 13.706 23.5724 12.8728C23.5724 6.64069 18.4486 1.5867 12.1261 1.5867C11.4609 1.5867 10.8068 1.64543 10.1672 1.75187C9.1439 1.11691 7.93422 0.749878 6.63682 0.749878C2.97122 0.749878 0 3.67877 0 7.294C0 8.50152 0.328918 9.63197 0.91366 10.6046C0.760164 11.3387 0.679763 12.0984 0.679763 12.8728C0.679763 19.1086 5.80356 24.1626 12.1261 24.1626C12.8424 24.1626 13.5441 24.0966 14.2238 23.9718C15.1558 24.4673 16.2266 24.7499 17.3632 24.7499C21.0288 24.7499 24 21.821 24 18.2058C23.9963 17.1597 23.7515 16.1724 23.3093 15.2989Z" fill="white"/>
<path d="M12.056 18.1899C14.264 18.1899 15.624 16.8619 15.624 15.1979C15.624 13.6459 14.68 12.9259 13.464 12.3979L11.976 11.7579C11.144 11.4059 10.232 11.0219 10.232 10.0139C10.232 9.06988 11.016 8.47788 12.184 8.47788C13.16 8.47788 13.928 8.86188 14.568 9.46988L15.288 8.60588C14.536 7.83788 13.432 7.30988 12.184 7.30988C10.28 7.30988 8.88798 8.49388 8.88798 10.0939C8.88798 11.6299 10.024 12.3819 11.016 12.7979L12.52 13.4539C13.512 13.9019 14.264 14.2379 14.264 15.3099C14.264 16.3339 13.448 17.0219 12.072 17.0219C10.984 17.0219 9.92798 16.4939 9.17598 15.7099L8.37598 16.6379C9.28798 17.5819 10.584 18.1899 12.056 18.1899Z" fill="#181818"/>
</svg>
